<svg width="4604" height="1393" viewBox="0 0 4604 1393" fill="none" xmlns="http://www.w3.org/2000/svg">
<rect x="3862.5" y="611.5" width="739" height="172" rx="27.5" fill="#79DFFF" stroke="black" stroke-width="5"/>
<path d="M4512.57 680.952C4510.77 680.952 4508.66 681.4 4506.23 682.296C4503.86 683.192 4500.98 685.016 4497.59 687.768V722.04H4489.72V674.52H4497.21V681.144C4500.6 678.264 4503.67 676.28 4506.42 675.192C4509.24 674.104 4511.93 673.56 4514.49 673.56C4518.9 673.56 4522.26 674.968 4524.57 677.784C4526.93 680.536 4528.12 684.472 4528.12 689.592V722.04H4520.25V690.744C4520.25 684.216 4517.69 680.952 4512.57 680.952Z" fill="black"/>
<path d="M4475.41 695.352V701.112C4475.41 707.896 4473.65 713.24 4470.13 717.144C4466.68 721.048 4461.72 723 4455.25 723C4448.85 723 4443.89 721.048 4440.37 717.144C4436.85 713.24 4435.09 707.896 4435.09 701.112V695.352C4435.09 688.696 4436.82 683.416 4440.28 679.512C4443.8 675.544 4448.79 673.56 4455.25 673.56C4461.72 673.56 4466.68 675.544 4470.13 679.512C4473.65 683.416 4475.41 688.696 4475.41 695.352ZM4467.25 695.352C4467.25 690.808 4466.23 687.256 4464.18 684.696C4462.13 682.072 4459.16 680.76 4455.25 680.76C4451.41 680.76 4448.44 682.072 4446.33 684.696C4444.28 687.256 4443.25 690.808 4443.25 695.352V701.112C4443.25 705.848 4444.28 709.496 4446.33 712.056C4448.44 714.616 4451.41 715.896 4455.25 715.896C4459.16 715.896 4462.13 714.616 4464.18 712.056C4466.23 709.496 4467.25 705.848 4467.25 701.112V695.352Z" fill="black"/>
<path d="M4408.05 715.992C4414.45 715.992 4417.65 713.816 4417.65 709.464C4417.65 707.608 4417.08 706.136 4415.92 705.048C4414.77 703.96 4412.66 703.032 4409.59 702.264L4404.31 700.92C4400.4 699.96 4397.49 698.296 4395.57 695.928C4393.65 693.496 4392.69 690.616 4392.69 687.288C4392.69 684.856 4393.24 682.616 4394.32 680.568C4395.41 678.456 4397.14 676.76 4399.51 675.48C4401.88 674.2 4404.95 673.56 4408.72 673.56C4411.16 673.56 4413.62 673.848 4416.12 674.424C4418.68 674.936 4421.27 675.832 4423.89 677.112L4421.4 683.736C4416.72 681.624 4412.5 680.568 4408.72 680.568C4403.16 680.568 4400.37 682.648 4400.37 686.808C4400.37 688.408 4400.88 689.784 4401.91 690.936C4402.93 692.088 4404.85 693.016 4407.67 693.72L4412.95 695.064C4417.17 696.088 4420.28 697.752 4422.26 700.056C4424.24 702.36 4425.24 705.336 4425.24 708.984C4425.24 711.608 4424.66 714.008 4423.51 716.184C4422.42 718.296 4420.63 719.96 4418.13 721.176C4415.7 722.392 4412.4 723 4408.24 723C4405.49 723 4402.74 722.712 4399.99 722.136C4397.3 721.56 4394.52 720.632 4391.64 719.352L4393.75 712.824C4396.5 713.912 4399 714.712 4401.24 715.224C4403.48 715.736 4405.75 715.992 4408.05 715.992Z" fill="black"/>
<path d="M4379.95 662.904H4371.11V654.072H4379.95V662.904ZM4361.23 743.448V735.96C4364.62 735.96 4367.18 735.16 4368.91 733.56C4370.7 731.96 4371.59 728.856 4371.59 724.248V674.52H4379.47V724.248C4379.47 727.96 4378.92 731.256 4377.83 734.136C4376.75 737.016 4374.86 739.288 4372.17 740.952C4369.55 742.616 4365.9 743.448 4361.23 743.448Z" fill="black"/>
<path d="M4358.31 722.04H4349.48V713.304H4358.31V722.04Z" fill="black"/>
<path d="M4323.4 715.992C4329.8 715.992 4333 713.816 4333 709.464C4333 707.608 4332.42 706.136 4331.27 705.048C4330.12 703.96 4328 703.032 4324.93 702.264L4319.65 700.92C4315.75 699.96 4312.84 698.296 4310.92 695.928C4309 693.496 4308.04 690.616 4308.04 687.288C4308.04 684.856 4308.58 682.616 4309.67 680.568C4310.76 678.456 4312.48 676.76 4314.85 675.48C4317.22 674.2 4320.29 673.56 4324.07 673.56C4326.5 673.56 4328.96 673.848 4331.46 674.424C4334.02 674.936 4336.61 675.832 4339.24 677.112L4336.74 683.736C4332.07 681.624 4327.84 680.568 4324.07 680.568C4318.5 680.568 4315.72 682.648 4315.72 686.808C4315.72 688.408 4316.23 689.784 4317.25 690.936C4318.28 692.088 4320.2 693.016 4323.01 693.72L4328.29 695.064C4332.52 696.088 4335.62 697.752 4337.6 700.056C4339.59 702.36 4340.58 705.336 4340.58 708.984C4340.58 711.608 4340 714.008 4338.85 716.184C4337.76 718.296 4335.97 719.96 4333.48 721.176C4331.04 722.392 4327.75 723 4323.59 723C4320.84 723 4318.08 722.712 4315.33 722.136C4312.64 721.56 4309.86 720.632 4306.98 719.352L4309.09 712.824C4311.84 713.912 4314.34 714.712 4316.58 715.224C4318.82 715.736 4321.09 715.992 4323.4 715.992Z" fill="black"/>
<path d="M4297.87 719.256C4294.99 720.664 4292.11 721.624 4289.23 722.136C4286.35 722.712 4283.69 723 4281.26 723C4274.41 723 4269.29 721.048 4265.9 717.144C4262.57 713.24 4260.91 707.896 4260.91 701.112V695.352C4260.91 688.76 4262.57 683.48 4265.9 679.512C4269.29 675.544 4274.06 673.56 4280.21 673.56C4283.47 673.56 4286.45 674.232 4289.13 675.576C4291.89 676.856 4294.06 678.84 4295.66 681.528C4297.33 684.152 4298.16 687.544 4298.16 691.704C4298.16 694.392 4297.77 697.464 4297.01 700.92H4268.69V701.112C4268.69 705.976 4269.68 709.656 4271.66 712.152C4273.71 714.648 4276.97 715.896 4281.45 715.896C4283.5 715.896 4285.74 715.64 4288.17 715.128C4290.67 714.616 4293.1 713.816 4295.47 712.728L4297.87 719.256ZM4280.21 680.472C4276.49 680.472 4273.68 681.688 4271.76 684.12C4269.9 686.488 4268.88 689.848 4268.69 694.2H4290.19C4290.38 693.048 4290.48 691.96 4290.48 690.936C4290.48 687.352 4289.45 684.728 4287.41 683.064C4285.42 681.336 4283.02 680.472 4280.21 680.472Z" fill="black"/>
<path d="M4233.68 715.992C4240.08 715.992 4243.28 713.816 4243.28 709.464C4243.28 707.608 4242.7 706.136 4241.55 705.048C4240.4 703.96 4238.29 703.032 4235.21 702.264L4229.93 700.92C4226.03 699.96 4223.12 698.296 4221.2 695.928C4219.28 693.496 4218.32 690.616 4218.32 687.288C4218.32 684.856 4218.86 682.616 4219.95 680.568C4221.04 678.456 4222.77 676.76 4225.13 675.48C4227.5 674.2 4230.57 673.56 4234.35 673.56C4236.78 673.56 4239.25 673.848 4241.74 674.424C4244.3 674.936 4246.89 675.832 4249.52 677.112L4247.02 683.736C4242.35 681.624 4238.13 680.568 4234.35 680.568C4228.78 680.568 4226 682.648 4226 686.808C4226 688.408 4226.51 689.784 4227.53 690.936C4228.56 692.088 4230.48 693.016 4233.29 693.72L4238.57 695.064C4242.8 696.088 4245.9 697.752 4247.89 700.056C4249.87 702.36 4250.86 705.336 4250.86 708.984C4250.86 711.608 4250.29 714.008 4249.13 716.184C4248.05 718.296 4246.25 719.96 4243.76 721.176C4241.33 722.392 4238.03 723 4233.87 723C4231.12 723 4228.37 722.712 4225.61 722.136C4222.93 721.56 4220.14 720.632 4217.26 719.352L4219.37 712.824C4222.13 713.912 4224.62 714.712 4226.86 715.224C4229.1 715.736 4231.37 715.992 4233.68 715.992Z" fill="black"/>
<path d="M4192.33 715.992C4198.73 715.992 4201.93 713.816 4201.93 709.464C4201.93 707.608 4201.36 706.136 4200.21 705.048C4199.05 703.96 4196.94 703.032 4193.87 702.264L4188.59 700.92C4184.69 699.96 4181.77 698.296 4179.85 695.928C4177.93 693.496 4176.97 690.616 4176.97 687.288C4176.97 684.856 4177.52 682.616 4178.61 680.568C4179.69 678.456 4181.42 676.76 4183.79 675.48C4186.16 674.2 4189.23 673.56 4193.01 673.56C4195.44 673.56 4197.9 673.848 4200.4 674.424C4202.96 674.936 4205.55 675.832 4208.17 677.112L4205.68 683.736C4201.01 681.624 4196.78 680.568 4193.01 680.568C4187.44 680.568 4184.65 682.648 4184.65 686.808C4184.65 688.408 4185.17 689.784 4186.19 690.936C4187.21 692.088 4189.13 693.016 4191.95 693.72L4197.23 695.064C4201.45 696.088 4204.56 697.752 4206.54 700.056C4208.53 702.36 4209.52 705.336 4209.52 708.984C4209.52 711.608 4208.94 714.008 4207.79 716.184C4206.7 718.296 4204.91 719.96 4202.41 721.176C4199.98 722.392 4196.69 723 4192.53 723C4189.77 723 4187.02 722.712 4184.27 722.136C4181.58 721.56 4178.8 720.632 4175.92 719.352L4178.03 712.824C4180.78 713.912 4183.28 714.712 4185.52 715.224C4187.76 715.736 4190.03 715.992 4192.33 715.992Z" fill="black"/>
<path d="M4168.13 722.52C4165.18 722.52 4162.82 721.848 4161.02 720.504C4159.3 719.16 4158.08 717.496 4157.38 715.512C4154.24 718.264 4151.39 720.216 4148.83 721.368C4146.27 722.456 4143.71 723 4141.15 723C4136.99 723 4133.92 721.656 4131.94 718.968C4129.95 716.28 4128.96 712.984 4128.96 709.08C4128.96 706.456 4129.44 704.12 4130.4 702.072C4131.36 700.024 4132.99 698.424 4135.3 697.272C4137.6 696.056 4140.7 695.448 4144.61 695.448C4146.34 695.448 4148.22 695.576 4150.27 695.832C4152.32 696.024 4154.4 696.28 4156.51 696.6V690.168C4156.51 686.584 4155.71 684.152 4154.11 682.872C4152.58 681.528 4150.3 680.856 4147.3 680.856C4143.2 680.856 4138.62 681.976 4133.57 684.216L4131.07 677.688C4134.02 676.344 4136.83 675.32 4139.52 674.616C4142.21 673.912 4144.93 673.56 4147.68 673.56C4152.16 673.56 4155.58 674.296 4157.95 675.768C4160.32 677.24 4161.95 679.192 4162.85 681.624C4163.74 684.056 4164.19 686.712 4164.19 689.592V710.136C4164.19 711.608 4164.48 712.856 4165.06 713.88C4165.63 714.84 4166.78 715.32 4168.51 715.32H4169.57V722.52H4168.13ZM4136.74 708.984C4136.74 711.16 4137.25 712.92 4138.27 714.264C4139.3 715.608 4140.77 716.28 4142.69 716.28C4144.35 716.28 4146.27 715.8 4148.45 714.84C4150.62 713.816 4153.31 711.8 4156.51 708.792V702.744C4152.16 702.04 4148.32 701.688 4144.99 701.688C4142.05 701.688 4139.94 702.296 4138.66 703.512C4137.38 704.728 4136.74 706.552 4136.74 708.984Z" fill="black"/>
<path d="M4107.96 710.52V651H4115.84V710.136C4115.84 711.864 4116.09 713.176 4116.6 714.072C4117.18 714.904 4118.3 715.32 4119.96 715.32H4121.5V722.52H4119.29C4115.07 722.52 4112.12 721.4 4110.46 719.16C4108.8 716.92 4107.96 714.04 4107.96 710.52Z" fill="black"/>
<path d="M4070.51 695.448V701.112C4070.51 705.976 4071.4 709.656 4073.19 712.152C4074.99 714.584 4077.83 715.8 4081.74 715.8C4085.58 715.8 4089.71 714.808 4094.12 712.824L4096.52 719.448C4091.27 721.816 4086.19 723 4081.26 723C4075.11 723 4070.44 721.048 4067.24 717.144C4064.04 713.24 4062.44 707.896 4062.44 701.112V695.448C4062.44 688.664 4064.04 683.32 4067.24 679.416C4070.44 675.512 4075.11 673.56 4081.26 673.56C4083.56 673.56 4085.93 673.88 4088.36 674.52C4090.86 675.096 4093.35 675.928 4095.85 677.016L4093.45 683.736C4091.34 682.84 4089.29 682.136 4087.31 681.624C4085.39 681.112 4083.53 680.856 4081.74 680.856C4077.83 680.856 4074.99 682.104 4073.19 684.6C4071.4 687.032 4070.51 690.648 4070.51 695.448Z" fill="black"/>
<path d="M4054.65 681.432C4051.77 681.432 4048.95 681.944 4046.2 682.968C4043.51 683.992 4040.63 685.944 4037.56 688.824V722.04H4029.69V674.52H4037.18V682.2C4040.44 679 4043.42 676.76 4046.1 675.48C4048.86 674.2 4051.7 673.56 4054.65 673.56V681.432Z" fill="black"/>
<path d="M3999.96 715.992C4006.36 715.992 4009.56 713.816 4009.56 709.464C4009.56 707.608 4008.98 706.136 4007.83 705.048C4006.68 703.96 4004.57 703.032 4001.49 702.264L3996.21 700.92C3992.31 699.96 3989.4 698.296 3987.48 695.928C3985.56 693.496 3984.6 690.616 3984.6 687.288C3984.6 684.856 3985.14 682.616 3986.23 680.568C3987.32 678.456 3989.05 676.76 3991.41 675.48C3993.78 674.2 3996.85 673.56 4000.63 673.56C4003.06 673.56 4005.53 673.848 4008.02 674.424C4010.58 674.936 4013.17 675.832 4015.8 677.112L4013.3 683.736C4008.63 681.624 4004.41 680.568 4000.63 680.568C3995.06 680.568 3992.28 682.648 3992.28 686.808C3992.28 688.408 3992.79 689.784 3993.81 690.936C3994.84 692.088 3996.76 693.016 3999.57 693.72L4004.85 695.064C4009.08 696.088 4012.18 697.752 4014.17 700.056C4016.15 702.36 4017.14 705.336 4017.14 708.984C4017.14 711.608 4016.57 714.008 4015.41 716.184C4014.33 718.296 4012.53 719.96 4010.04 721.176C4007.61 722.392 4004.31 723 4000.15 723C3997.4 723 3994.65 722.712 3991.89 722.136C3989.21 721.56 3986.42 720.632 3983.54 719.352L3985.65 712.824C3988.41 713.912 3990.9 714.712 3993.14 715.224C3995.38 715.736 3997.65 715.992 3999.96 715.992Z" fill="black"/>
<path d="M3954.01 723C3950.42 723 3946.71 722.264 3942.87 720.792V742.488H3935V674.52H3942.49V681.24C3945.43 678.424 3948.12 676.44 3950.55 675.288C3952.98 674.136 3955.48 673.56 3958.04 673.56C3963.1 673.56 3966.97 675.48 3969.66 679.32C3972.41 683.16 3973.78 688.568 3973.78 695.544V701.112C3973.78 707.768 3972.09 713.08 3968.7 717.048C3965.37 721.016 3960.47 723 3954.01 723ZM3956.12 680.952C3954.26 680.952 3952.34 681.432 3950.36 682.392C3948.38 683.352 3945.88 685.304 3942.87 688.248V713.592C3944.73 714.424 3946.52 715.032 3948.25 715.416C3949.98 715.736 3951.67 715.896 3953.34 715.896C3957.69 715.896 3960.82 714.584 3962.74 711.96C3964.66 709.272 3965.62 705.656 3965.62 701.112V695.544C3965.62 690.552 3964.82 686.872 3963.22 684.504C3961.69 682.136 3959.32 680.952 3956.12 680.952Z" fill="black"/>
<rect x="1457.5" y="1218.5" width="739" height="172" rx="27.5" fill="#79DFFF" stroke="black" stroke-width="5"/>
<path d="M1976.7 1333.95C1983.1 1333.95 1986.3 1331.78 1986.3 1327.42C1986.3 1325.57 1985.73 1324.1 1984.57 1323.01C1983.42 1321.92 1981.31 1320.99 1978.24 1320.22L1972.96 1318.88C1969.05 1317.92 1966.14 1316.26 1964.22 1313.89C1962.3 1311.46 1961.34 1308.58 1961.34 1305.25C1961.34 1302.82 1961.89 1300.58 1962.97 1298.53C1964.06 1296.42 1965.79 1294.72 1968.16 1293.44C1970.53 1292.16 1973.6 1291.52 1977.37 1291.52C1979.81 1291.52 1982.27 1291.81 1984.77 1292.38C1987.33 1292.9 1989.92 1293.79 1992.54 1295.07L1990.05 1301.7C1985.37 1299.58 1981.15 1298.53 1977.37 1298.53C1971.81 1298.53 1969.02 1300.61 1969.02 1304.77C1969.02 1306.37 1969.53 1307.74 1970.56 1308.9C1971.58 1310.05 1973.5 1310.98 1976.32 1311.68L1981.6 1313.02C1985.82 1314.05 1988.93 1315.71 1990.91 1318.02C1992.89 1320.32 1993.89 1323.3 1993.89 1326.94C1993.89 1329.57 1993.31 1331.97 1992.16 1334.14C1991.07 1336.26 1989.28 1337.92 1986.78 1339.14C1984.35 1340.35 1981.05 1340.96 1976.89 1340.96C1974.14 1340.96 1971.39 1340.67 1968.64 1340.1C1965.95 1339.52 1963.17 1338.59 1960.29 1337.31L1962.4 1330.78C1965.15 1331.87 1967.65 1332.67 1969.89 1333.18C1972.13 1333.7 1974.4 1333.95 1976.7 1333.95Z" fill="black"/>
<path d="M1954.73 1338.27C1951.14 1340.06 1947.34 1340.96 1943.3 1340.96C1939.85 1340.96 1937.13 1340.26 1935.14 1338.85C1933.22 1337.44 1931.85 1335.55 1931.02 1333.18C1930.25 1330.82 1929.86 1328.19 1929.86 1325.31V1299.39H1921.61V1292.48H1929.86V1279.23H1937.74V1292.48H1953.29V1299.39H1937.74V1325.02C1937.74 1328.35 1938.28 1330.66 1939.37 1331.94C1940.52 1333.15 1942.28 1333.76 1944.65 1333.76C1945.8 1333.76 1946.98 1333.63 1948.2 1333.38C1949.48 1333.06 1950.86 1332.54 1952.33 1331.84L1954.73 1338.27Z" fill="black"/>
<path d="M1903.21 1328.48V1268.96H1911.08V1328.1C1911.08 1329.82 1911.34 1331.14 1911.85 1332.03C1912.42 1332.86 1913.54 1333.28 1915.21 1333.28H1916.74V1340.48H1914.54C1910.31 1340.48 1907.37 1339.36 1905.7 1337.12C1904.04 1334.88 1903.21 1332 1903.21 1328.48Z" fill="black"/>
<path d="M1878.96 1340V1333.28C1875.63 1336.16 1872.65 1338.18 1870.03 1339.33C1867.41 1340.42 1864.78 1340.96 1862.16 1340.96C1857.93 1340.96 1854.7 1339.58 1852.46 1336.83C1850.22 1334.02 1849.1 1330.08 1849.1 1325.02V1292.48H1856.97V1323.87C1856.97 1327.2 1857.55 1329.66 1858.7 1331.26C1859.92 1332.8 1861.71 1333.57 1864.08 1333.57C1865.87 1333.57 1867.89 1333.12 1870.13 1332.22C1872.37 1331.33 1875.15 1329.54 1878.48 1326.85V1292.48H1886.35V1340H1878.96Z" fill="black"/>
<path d="M1837.09 1340.48C1834.14 1340.48 1831.77 1339.81 1829.98 1338.46C1828.25 1337.12 1827.04 1335.46 1826.33 1333.47C1823.2 1336.22 1820.35 1338.18 1817.79 1339.33C1815.23 1340.42 1812.67 1340.96 1810.11 1340.96C1805.95 1340.96 1802.88 1339.62 1800.89 1336.93C1798.91 1334.24 1797.92 1330.94 1797.92 1327.04C1797.92 1324.42 1798.4 1322.08 1799.36 1320.03C1800.32 1317.98 1801.95 1316.38 1804.25 1315.23C1806.56 1314.02 1809.66 1313.41 1813.57 1313.41C1815.29 1313.41 1817.18 1313.54 1819.23 1313.79C1821.28 1313.98 1823.36 1314.24 1825.47 1314.56V1308.13C1825.47 1304.54 1824.67 1302.11 1823.07 1300.83C1821.53 1299.49 1819.26 1298.82 1816.25 1298.82C1812.16 1298.82 1807.58 1299.94 1802.53 1302.18L1800.03 1295.65C1802.97 1294.3 1805.79 1293.28 1808.48 1292.58C1811.17 1291.87 1813.89 1291.52 1816.64 1291.52C1821.12 1291.52 1824.54 1292.26 1826.91 1293.73C1829.28 1295.2 1830.91 1297.15 1831.81 1299.58C1832.7 1302.02 1833.15 1304.67 1833.15 1307.55V1328.1C1833.15 1329.57 1833.44 1330.82 1834.01 1331.84C1834.59 1332.8 1835.74 1333.28 1837.47 1333.28H1838.53V1340.48H1837.09ZM1805.69 1326.94C1805.69 1329.12 1806.21 1330.88 1807.23 1332.22C1808.25 1333.57 1809.73 1334.24 1811.65 1334.24C1813.31 1334.24 1815.23 1333.76 1817.41 1332.8C1819.58 1331.78 1822.27 1329.76 1825.47 1326.75V1320.7C1821.12 1320 1817.28 1319.65 1813.95 1319.65C1811.01 1319.65 1808.89 1320.26 1807.61 1321.47C1806.33 1322.69 1805.69 1324.51 1805.69 1326.94Z" fill="black"/>
<path d="M1793.73 1299.39H1778.18V1340H1770.31V1299.39H1762.05V1292.48H1770.31V1284.61C1770.31 1281.66 1770.79 1278.94 1771.75 1276.45C1772.77 1273.89 1774.4 1271.84 1776.64 1270.3C1778.88 1268.77 1781.86 1268 1785.57 1268C1787.43 1268 1789.38 1268.22 1791.43 1268.67C1793.54 1269.06 1795.49 1269.66 1797.28 1270.5L1795.08 1277.12C1791.81 1275.84 1788.96 1275.2 1786.53 1275.2C1783.84 1275.2 1781.76 1275.94 1780.29 1277.41C1778.88 1278.88 1778.18 1281.25 1778.18 1284.51V1292.48H1793.73V1299.39Z" fill="black"/>
<path d="M1754.86 1337.22C1751.98 1338.62 1749.1 1339.58 1746.22 1340.1C1743.34 1340.67 1740.69 1340.96 1738.25 1340.96C1731.41 1340.96 1726.29 1339.01 1722.89 1335.1C1719.57 1331.2 1717.9 1325.86 1717.9 1319.07V1313.31C1717.9 1306.72 1719.57 1301.44 1722.89 1297.47C1726.29 1293.5 1731.05 1291.52 1737.2 1291.52C1740.46 1291.52 1743.44 1292.19 1746.13 1293.54C1748.88 1294.82 1751.05 1296.8 1752.65 1299.49C1754.32 1302.11 1755.15 1305.5 1755.15 1309.66C1755.15 1312.35 1754.77 1315.42 1754 1318.88H1725.68V1319.07C1725.68 1323.94 1726.67 1327.62 1728.65 1330.11C1730.7 1332.61 1733.97 1333.86 1738.45 1333.86C1740.49 1333.86 1742.73 1333.6 1745.17 1333.09C1747.66 1332.58 1750.09 1331.78 1752.46 1330.69L1754.86 1337.22ZM1737.2 1298.43C1733.49 1298.43 1730.67 1299.65 1728.75 1302.08C1726.89 1304.45 1725.87 1307.81 1725.68 1312.16H1747.18C1747.37 1311.01 1747.47 1309.92 1747.47 1308.9C1747.47 1305.31 1746.45 1302.69 1744.4 1301.02C1742.41 1299.3 1740.01 1298.43 1737.2 1298.43Z" fill="black"/>
<path d="M1661 1340V1274.72H1681.26C1688.74 1274.72 1694.5 1276.99 1698.54 1281.54C1702.57 1286.02 1704.58 1292.22 1704.58 1300.16V1314.46C1704.58 1322.46 1702.57 1328.74 1698.54 1333.28C1694.5 1337.76 1688.74 1340 1681.26 1340H1661ZM1681.06 1282.59H1669.35V1332.22H1681.06C1690.98 1332.22 1695.94 1326.3 1695.94 1314.46V1300.16C1695.94 1288.45 1690.98 1282.59 1681.06 1282.59Z" fill="black"/>
<rect x="1423.5" y="868.5" width="807" height="172" rx="27.5" fill="#79DFFF" stroke="black" stroke-width="5"/>
<path d="M2163.92 939.432C2161.04 939.432 2158.22 939.944 2155.47 940.968C2152.78 941.992 2149.9 943.944 2146.83 946.824V980.04H2138.96V932.52H2146.45V940.2C2149.71 937 2152.69 934.76 2155.38 933.48C2158.13 932.2 2160.98 931.56 2163.92 931.56V939.432Z" fill="black"/>
<path d="M2125.05 977.256C2122.17 978.664 2119.29 979.624 2116.41 980.136C2113.53 980.712 2110.87 981 2108.44 981C2101.59 981 2096.47 979.048 2093.08 975.144C2089.75 971.24 2088.09 965.896 2088.09 959.112V953.352C2088.09 946.76 2089.75 941.48 2093.08 937.512C2096.47 933.544 2101.24 931.56 2107.38 931.56C2110.65 931.56 2113.62 932.232 2116.31 933.576C2119.06 934.856 2121.24 936.84 2122.84 939.528C2124.5 942.152 2125.34 945.544 2125.34 949.704C2125.34 952.392 2124.95 955.464 2124.18 958.92H2095.86V959.112C2095.86 963.976 2096.86 967.656 2098.84 970.152C2100.89 972.648 2104.15 973.896 2108.63 973.896C2110.68 973.896 2112.92 973.64 2115.35 973.128C2117.85 972.616 2120.28 971.816 2122.65 970.728L2125.05 977.256ZM2107.38 938.472C2103.67 938.472 2100.86 939.688 2098.94 942.12C2097.08 944.488 2096.06 947.848 2095.86 952.2H2117.37C2117.56 951.048 2117.66 949.96 2117.66 948.936C2117.66 945.352 2116.63 942.728 2114.58 941.064C2112.6 939.336 2110.2 938.472 2107.38 938.472Z" fill="black"/>
<path d="M2056.25 981C2052.66 981 2048.95 980.264 2045.11 978.792V1000.49H2037.24V932.52H2044.73V939.24C2047.67 936.424 2050.36 934.44 2052.79 933.288C2055.22 932.136 2057.72 931.56 2060.28 931.56C2065.34 931.56 2069.21 933.48 2071.9 937.32C2074.65 941.16 2076.02 946.568 2076.02 953.544V959.112C2076.02 965.768 2074.33 971.08 2070.94 975.048C2067.61 979.016 2062.71 981 2056.25 981ZM2058.36 938.952C2056.5 938.952 2054.58 939.432 2052.6 940.392C2050.62 941.352 2048.12 943.304 2045.11 946.248V971.592C2046.97 972.424 2048.76 973.032 2050.49 973.416C2052.22 973.736 2053.91 973.896 2055.58 973.896C2059.93 973.896 2063.06 972.584 2064.98 969.96C2066.9 967.272 2067.86 963.656 2067.86 959.112V953.544C2067.86 948.552 2067.06 944.872 2065.46 942.504C2063.93 940.136 2061.56 938.952 2058.36 938.952Z" fill="black"/>
<path d="M2002.9 981C1999.32 981 1995.61 980.264 1991.77 978.792V1000.49H1983.9V932.52H1991.38V939.24C1994.33 936.424 1997.02 934.44 1999.45 933.288C2001.88 932.136 2004.38 931.56 2006.94 931.56C2011.99 931.56 2015.86 933.48 2018.55 937.32C2021.3 941.16 2022.68 946.568 2022.68 953.544V959.112C2022.68 965.768 2020.98 971.08 2017.59 975.048C2014.26 979.016 2009.37 981 2002.9 981ZM2005.02 938.952C2003.16 938.952 2001.24 939.432 1999.26 940.392C1997.27 941.352 1994.78 943.304 1991.77 946.248V971.592C1993.62 972.424 1995.42 973.032 1997.14 973.416C1998.87 973.736 2000.57 973.896 2002.23 973.896C2006.58 973.896 2009.72 972.584 2011.64 969.96C2013.56 967.272 2014.52 963.656 2014.52 959.112V953.544C2014.52 948.552 2013.72 944.872 2012.12 942.504C2010.58 940.136 2008.22 938.952 2005.02 938.952Z" fill="black"/>
<path d="M1971.3 980.52C1968.36 980.52 1965.99 979.848 1964.2 978.504C1962.47 977.16 1961.26 975.496 1960.55 973.512C1957.42 976.264 1954.57 978.216 1952.01 979.368C1949.45 980.456 1946.89 981 1944.33 981C1940.17 981 1937.1 979.656 1935.11 976.968C1933.13 974.28 1932.14 970.984 1932.14 967.08C1932.14 964.456 1932.62 962.12 1933.58 960.072C1934.54 958.024 1936.17 956.424 1938.47 955.272C1940.78 954.056 1943.88 953.448 1947.78 953.448C1949.51 953.448 1951.4 953.576 1953.45 953.832C1955.5 954.024 1957.58 954.28 1959.69 954.6V948.168C1959.69 944.584 1958.89 942.152 1957.29 940.872C1955.75 939.528 1953.48 938.856 1950.47 938.856C1946.38 938.856 1941.8 939.976 1936.74 942.216L1934.25 935.688C1937.19 934.344 1940.01 933.32 1942.7 932.616C1945.38 931.912 1948.1 931.56 1950.86 931.56C1955.34 931.56 1958.76 932.296 1961.13 933.768C1963.5 935.24 1965.13 937.192 1966.02 939.624C1966.92 942.056 1967.37 944.712 1967.37 947.592V968.136C1967.37 969.608 1967.66 970.856 1968.23 971.88C1968.81 972.84 1969.96 973.32 1971.69 973.32H1972.74V980.52H1971.3ZM1939.91 966.984C1939.91 969.16 1940.42 970.92 1941.45 972.264C1942.47 973.608 1943.94 974.28 1945.86 974.28C1947.53 974.28 1949.45 973.8 1951.62 972.84C1953.8 971.816 1956.49 969.8 1959.69 966.792V960.744C1955.34 960.04 1951.5 959.688 1948.17 959.688C1945.22 959.688 1943.11 960.296 1941.83 961.512C1940.55 962.728 1939.91 964.552 1939.91 966.984Z" fill="black"/>
<path d="M1868.48 914.76L1888.35 963.144L1908.32 914.76H1917.82V980.04H1909.66V952.104L1910.72 926.952L1892 972.36H1884.13L1865.79 926.76L1866.85 952.104V980.04H1858.69V914.76H1868.48Z" fill="black"/>
<path d="M1804.06 938.952C1802.26 938.952 1800.15 939.4 1797.72 940.296C1795.35 941.192 1792.47 943.016 1789.08 945.768V980.04H1781.21V932.52H1788.7V939.144C1792.09 936.264 1795.16 934.28 1797.91 933.192C1800.73 932.104 1803.42 931.56 1805.98 931.56C1810.39 931.56 1813.75 932.968 1816.06 935.784C1818.42 938.536 1819.61 942.472 1819.61 947.592V980.04H1811.74V948.744C1811.74 942.216 1809.18 938.952 1804.06 938.952Z" fill="black"/>
<path d="M1766.9 953.352V959.112C1766.9 965.896 1765.14 971.24 1761.62 975.144C1758.17 979.048 1753.21 981 1746.74 981C1740.34 981 1735.38 979.048 1731.86 975.144C1728.34 971.24 1726.58 965.896 1726.58 959.112V953.352C1726.58 946.696 1728.31 941.416 1731.77 937.512C1735.29 933.544 1740.28 931.56 1746.74 931.56C1753.21 931.56 1758.17 933.544 1761.62 937.512C1765.14 941.416 1766.9 946.696 1766.9 953.352ZM1758.74 953.352C1758.74 948.808 1757.72 945.256 1755.67 942.696C1753.62 940.072 1750.65 938.76 1746.74 938.76C1742.9 938.76 1739.93 940.072 1737.82 942.696C1735.77 945.256 1734.74 948.808 1734.74 953.352V959.112C1734.74 963.848 1735.77 967.496 1737.82 970.056C1739.93 972.616 1742.9 973.896 1746.74 973.896C1750.65 973.896 1753.62 972.616 1755.67 970.056C1757.72 967.496 1758.74 963.848 1758.74 959.112V953.352Z" fill="black"/>
<path d="M1712.78 920.904H1703.95V912.072H1712.78V920.904ZM1712.3 980.04H1704.43V932.52H1712.3V980.04Z" fill="black"/>
<path d="M1694.07 978.312C1690.49 980.104 1686.68 981 1682.65 981C1679.19 981 1676.47 980.296 1674.49 978.888C1672.57 977.48 1671.19 975.592 1670.36 973.224C1669.59 970.856 1669.21 968.232 1669.21 965.352V939.432H1660.95V932.52H1669.21V919.272H1677.08V932.52H1692.63V939.432H1677.08V965.064C1677.08 968.392 1677.62 970.696 1678.71 971.976C1679.86 973.192 1681.62 973.8 1683.99 973.8C1685.14 973.8 1686.33 973.672 1687.54 973.416C1688.82 973.096 1690.2 972.584 1691.67 971.88L1694.07 978.312Z" fill="black"/>
<path d="M1655.37 980.52C1652.42 980.52 1650.06 979.848 1648.26 978.504C1646.54 977.16 1645.32 975.496 1644.62 973.512C1641.48 976.264 1638.63 978.216 1636.07 979.368C1633.51 980.456 1630.95 981 1628.39 981C1624.23 981 1621.16 979.656 1619.18 976.968C1617.19 974.28 1616.2 970.984 1616.2 967.08C1616.2 964.456 1616.68 962.12 1617.64 960.072C1618.6 958.024 1620.23 956.424 1622.54 955.272C1624.84 954.056 1627.94 953.448 1631.85 953.448C1633.58 953.448 1635.46 953.576 1637.51 953.832C1639.56 954.024 1641.64 954.28 1643.75 954.6V948.168C1643.75 944.584 1642.95 942.152 1641.35 940.872C1639.82 939.528 1637.54 938.856 1634.54 938.856C1630.44 938.856 1625.86 939.976 1620.81 942.216L1618.31 935.688C1621.26 934.344 1624.07 933.32 1626.76 932.616C1629.45 931.912 1632.17 931.56 1634.92 931.56C1639.4 931.56 1642.82 932.296 1645.19 933.768C1647.56 935.24 1649.19 937.192 1650.09 939.624C1650.98 942.056 1651.43 944.712 1651.43 947.592V968.136C1651.43 969.608 1651.72 970.856 1652.3 971.88C1652.87 972.84 1654.02 973.32 1655.75 973.32H1656.81V980.52H1655.37ZM1623.98 966.984C1623.98 969.16 1624.49 970.92 1625.51 972.264C1626.54 973.608 1628.01 974.28 1629.93 974.28C1631.59 974.28 1633.51 973.8 1635.69 972.84C1637.86 971.816 1640.55 969.8 1643.75 966.792V960.744C1639.4 960.04 1635.56 959.688 1632.23 959.688C1629.29 959.688 1627.18 960.296 1625.9 961.512C1624.62 962.728 1623.98 964.552 1623.98 966.984Z" fill="black"/>
<path d="M1595.21 968.52V909H1603.08V968.136C1603.08 969.864 1603.34 971.176 1603.85 972.072C1604.42 972.904 1605.54 973.32 1607.21 973.32H1608.74V980.52H1606.54C1602.31 980.52 1599.37 979.4 1597.7 977.16C1596.04 974.92 1595.21 972.04 1595.21 968.52Z" fill="black"/>
<path d="M1581.39 977.256C1578.51 978.664 1575.63 979.624 1572.75 980.136C1569.87 980.712 1567.22 981 1564.78 981C1557.94 981 1552.82 979.048 1549.42 975.144C1546.1 971.24 1544.43 965.896 1544.43 959.112V953.352C1544.43 946.76 1546.1 941.48 1549.42 937.512C1552.82 933.544 1557.58 931.56 1563.73 931.56C1566.99 931.56 1569.97 932.232 1572.66 933.576C1575.41 934.856 1577.58 936.84 1579.18 939.528C1580.85 942.152 1581.68 945.544 1581.68 949.704C1581.68 952.392 1581.3 955.464 1580.53 958.92H1552.21V959.112C1552.21 963.976 1553.2 967.656 1555.18 970.152C1557.23 972.648 1560.5 973.896 1564.98 973.896C1567.02 973.896 1569.26 973.64 1571.7 973.128C1574.19 972.616 1576.62 971.816 1578.99 970.728L1581.39 977.256ZM1563.73 938.472C1560.02 938.472 1557.2 939.688 1555.28 942.12C1553.42 944.488 1552.4 947.848 1552.21 952.2H1573.71C1573.9 951.048 1574 949.96 1574 948.936C1574 945.352 1572.98 942.728 1570.93 941.064C1568.94 939.336 1566.54 938.472 1563.73 938.472Z" fill="black"/>
<path d="M1499.35 954.504V980.04H1491V914.76H1511.45C1517.59 914.76 1522.33 916.392 1525.66 919.656C1529.05 922.856 1530.74 927.144 1530.74 932.52V936.648C1530.74 940.488 1529.85 943.816 1528.06 946.632C1526.33 949.448 1523.83 951.528 1520.57 952.872C1523.32 957.288 1525.88 961.768 1528.25 966.312C1530.62 970.856 1532.79 975.432 1534.78 980.04H1525.18C1521.53 971.336 1517.27 962.824 1512.41 954.504H1499.35ZM1511.45 922.44H1499.35V946.824H1511.45C1514.71 946.824 1517.3 945.928 1519.22 944.136C1521.14 942.28 1522.1 939.784 1522.1 936.648V932.52C1522.1 929.32 1521.14 926.856 1519.22 925.128C1517.3 923.336 1514.71 922.44 1511.45 922.44Z" fill="black"/>
<rect x="1469.5" y="175.5" width="739" height="172" rx="27.5" fill="#79DFFF" stroke="black" stroke-width="5"/>
<path d="M2066.6 292.512C2063.02 294.304 2059.21 295.2 2055.18 295.2C2051.72 295.2 2049 294.496 2047.02 293.088C2045.1 291.68 2043.72 289.792 2042.89 287.424C2042.12 285.056 2041.74 282.432 2041.74 279.552V253.632H2033.48V246.72H2041.74V233.472H2049.61V246.72H2065.16V253.632H2049.61V279.264C2049.61 282.592 2050.15 284.896 2051.24 286.176C2052.39 287.392 2054.15 288 2056.52 288C2057.67 288 2058.86 287.872 2060.07 287.616C2061.35 287.296 2062.73 286.784 2064.2 286.08L2066.6 292.512Z" fill="black"/>
<path d="M2002.93 267.648V273.312C2002.93 278.176 2003.83 281.856 2005.62 284.352C2007.41 286.784 2010.26 288 2014.17 288C2018.01 288 2022.13 287.008 2026.55 285.024L2028.95 291.648C2023.7 294.016 2018.61 295.2 2013.69 295.2C2007.54 295.2 2002.87 293.248 1999.67 289.344C1996.47 285.44 1994.87 280.096 1994.87 273.312V267.648C1994.87 260.864 1996.47 255.52 1999.67 251.616C2002.87 247.712 2007.54 245.76 2013.69 245.76C2015.99 245.76 2018.36 246.08 2020.79 246.72C2023.29 247.296 2025.78 248.128 2028.28 249.216L2025.88 255.936C2023.77 255.04 2021.72 254.336 2019.73 253.824C2017.81 253.312 2015.96 253.056 2014.17 253.056C2010.26 253.056 2007.41 254.304 2005.62 256.8C2003.83 259.232 2002.93 262.848 2002.93 267.648Z" fill="black"/>
<path d="M1973.02 294.24V287.52C1969.69 290.4 1966.72 292.416 1964.09 293.568C1961.47 294.656 1958.84 295.2 1956.22 295.2C1952 295.2 1948.76 293.824 1946.52 291.072C1944.28 288.256 1943.16 284.32 1943.16 279.264V246.72H1951.04V278.112C1951.04 281.44 1951.61 283.904 1952.76 285.504C1953.98 287.04 1955.77 287.808 1958.14 287.808C1959.93 287.808 1961.95 287.36 1964.19 286.464C1966.43 285.568 1969.21 283.776 1972.54 281.088V246.72H1980.41V294.24H1973.02Z" fill="black"/>
<path d="M1933.45 253.632C1930.57 253.632 1927.75 254.144 1925 255.168C1922.31 256.192 1919.43 258.144 1916.36 261.024V294.24H1908.49V246.72H1915.98V254.4C1919.24 251.2 1922.22 248.96 1924.91 247.68C1927.66 246.4 1930.51 245.76 1933.45 245.76V253.632Z" fill="black"/>
<path d="M1898.13 292.512C1894.55 294.304 1890.74 295.2 1886.71 295.2C1883.25 295.2 1880.53 294.496 1878.55 293.088C1876.63 291.68 1875.25 289.792 1874.42 287.424C1873.65 285.056 1873.27 282.432 1873.27 279.552V253.632H1865.01V246.72H1873.27V233.472H1881.14V246.72H1896.69V253.632H1881.14V279.264C1881.14 282.592 1881.69 284.896 1882.77 286.176C1883.93 287.392 1885.69 288 1888.05 288C1889.21 288 1890.39 287.872 1891.61 287.616C1892.89 287.296 1894.26 286.784 1895.73 286.08L1898.13 292.512Z" fill="black"/>
<path d="M1838.53 287.712C1842.56 287.712 1845.67 286.848 1847.84 285.12C1850.02 283.328 1851.11 280.736 1851.11 277.344C1851.11 274.528 1850.34 272.16 1848.8 270.24C1847.33 268.32 1844.9 266.848 1841.51 265.824L1833.73 263.52C1828.87 262.048 1825.28 259.84 1822.98 256.896C1820.67 253.888 1819.52 250.208 1819.52 245.856C1819.52 242.528 1820.16 239.52 1821.44 236.832C1822.79 234.144 1824.9 232 1827.78 230.4C1830.72 228.8 1834.56 228 1839.3 228C1842.18 228 1845.15 228.352 1848.23 229.056C1851.3 229.696 1854.4 230.752 1857.54 232.224L1854.85 239.424C1851.78 238.08 1848.99 237.12 1846.5 236.544C1844.07 235.904 1841.73 235.584 1839.49 235.584C1835.84 235.584 1832.99 236.352 1830.95 237.888C1828.96 239.36 1827.97 241.824 1827.97 245.28C1827.97 247.776 1828.64 249.888 1829.99 251.616C1831.33 253.28 1833.73 254.656 1837.19 255.744L1844.96 258.048C1854.69 260.928 1859.55 267.136 1859.55 276.672C1859.55 282.176 1857.89 286.656 1854.56 290.112C1851.23 293.504 1845.89 295.2 1838.53 295.2C1835.52 295.2 1832.32 294.848 1828.93 294.144C1825.6 293.376 1822.15 292.192 1818.56 290.592L1821.15 283.488C1824.55 285.024 1827.59 286.112 1830.27 286.752C1833.03 287.392 1835.78 287.712 1838.53 287.712Z" fill="black"/>
<path d="M1789.96 294.72C1787.02 294.72 1784.65 294.048 1782.86 292.704C1781.13 291.36 1779.91 289.696 1779.21 287.712C1776.07 290.464 1773.22 292.416 1770.66 293.568C1768.1 294.656 1765.54 295.2 1762.98 295.2C1758.82 295.2 1755.75 293.856 1753.77 291.168C1751.78 288.48 1750.79 285.184 1750.79 281.28C1750.79 278.656 1751.27 276.32 1752.23 274.272C1753.19 272.224 1754.82 270.624 1757.13 269.472C1759.43 268.256 1762.54 267.648 1766.44 267.648C1768.17 267.648 1770.06 267.776 1772.1 268.032C1774.15 268.224 1776.23 268.48 1778.34 268.8V262.368C1778.34 258.784 1777.54 256.352 1775.94 255.072C1774.41 253.728 1772.14 253.056 1769.13 253.056C1765.03 253.056 1760.46 254.176 1755.4 256.416L1752.9 249.888C1755.85 248.544 1758.66 247.52 1761.35 246.816C1764.04 246.112 1766.76 245.76 1769.51 245.76C1773.99 245.76 1777.42 246.496 1779.78 247.968C1782.15 249.44 1783.78 251.392 1784.68 253.824C1785.58 256.256 1786.02 258.912 1786.02 261.792V282.336C1786.02 283.808 1786.31 285.056 1786.89 286.08C1787.46 287.04 1788.62 287.52 1790.34 287.52H1791.4V294.72H1789.96ZM1758.57 281.184C1758.57 283.36 1759.08 285.12 1760.1 286.464C1761.13 287.808 1762.6 288.48 1764.52 288.48C1766.18 288.48 1768.1 288 1770.28 287.04C1772.46 286.016 1775.14 284 1778.34 280.992V274.944C1773.99 274.24 1770.15 273.888 1766.82 273.888C1763.88 273.888 1761.77 274.496 1760.49 275.712C1759.21 276.928 1758.57 278.752 1758.57 281.184Z" fill="black"/>
<path d="M1744.85 292.512C1741.27 294.304 1737.46 295.2 1733.43 295.2C1729.97 295.2 1727.25 294.496 1725.27 293.088C1723.35 291.68 1721.97 289.792 1721.14 287.424C1720.37 285.056 1719.99 282.432 1719.99 279.552V253.632H1711.73V246.72H1719.99V233.472H1727.86V246.72H1743.41V253.632H1727.86V279.264C1727.86 282.592 1728.4 284.896 1729.49 286.176C1730.64 287.392 1732.4 288 1734.77 288C1735.92 288 1737.11 287.872 1738.32 287.616C1739.6 287.296 1740.98 286.784 1742.45 286.08L1744.85 292.512Z" fill="black"/>
<path d="M1706.15 294.72C1703.2 294.72 1700.84 294.048 1699.04 292.704C1697.32 291.36 1696.1 289.696 1695.4 287.712C1692.26 290.464 1689.41 292.416 1686.85 293.568C1684.29 294.656 1681.73 295.2 1679.17 295.2C1675.01 295.2 1671.94 293.856 1669.96 291.168C1667.97 288.48 1666.98 285.184 1666.98 281.28C1666.98 278.656 1667.46 276.32 1668.42 274.272C1669.38 272.224 1671.01 270.624 1673.32 269.472C1675.62 268.256 1678.72 267.648 1682.63 267.648C1684.36 267.648 1686.24 267.776 1688.29 268.032C1690.34 268.224 1692.42 268.48 1694.53 268.8V262.368C1694.53 258.784 1693.73 256.352 1692.13 255.072C1690.6 253.728 1688.32 253.056 1685.32 253.056C1681.22 253.056 1676.64 254.176 1671.59 256.416L1669.09 249.888C1672.04 248.544 1674.85 247.52 1677.54 246.816C1680.23 246.112 1682.95 245.76 1685.7 245.76C1690.18 245.76 1693.6 246.496 1695.97 247.968C1698.34 249.44 1699.97 251.392 1700.87 253.824C1701.76 256.256 1702.21 258.912 1702.21 261.792V282.336C1702.21 283.808 1702.5 285.056 1703.08 286.08C1703.65 287.04 1704.8 287.52 1706.53 287.52H1707.59V294.72H1706.15ZM1674.76 281.184C1674.76 283.36 1675.27 285.12 1676.29 286.464C1677.32 287.808 1678.79 288.48 1680.71 288.48C1682.37 288.48 1684.29 288 1686.47 287.04C1688.64 286.016 1691.33 284 1694.53 280.992V274.944C1690.18 274.24 1686.34 273.888 1683.01 273.888C1680.07 273.888 1677.96 274.496 1676.68 275.712C1675.4 276.928 1674.76 278.752 1674.76 281.184Z" fill="black"/>
<path d="M1612 294.24V228.96H1632.26C1639.74 228.96 1645.5 231.232 1649.54 235.776C1653.57 240.256 1655.58 246.464 1655.58 254.4V268.704C1655.58 276.704 1653.57 282.976 1649.54 287.52C1645.5 292 1639.74 294.24 1632.26 294.24H1612ZM1632.06 236.832H1620.35V286.464H1632.06C1641.98 286.464 1646.94 280.544 1646.94 268.704V254.4C1646.94 242.688 1641.98 236.832 1632.06 236.832Z" fill="black"/>
<rect x="353.5" y="2.5" width="378" height="172" rx="27.5" fill="#79DFFF" stroke="black" stroke-width="5"/>
<path d="M587.781 121.28V56H608.037C615.525 56 621.285 58.272 625.317 62.816C629.349 67.296 631.365 73.504 631.365 81.44V95.744C631.365 103.744 629.349 110.016 625.317 114.56C621.285 119.04 615.525 121.28 608.037 121.28H587.781ZM607.845 63.872H596.133V113.504H607.845C617.765 113.504 622.725 107.584 622.725 95.744V81.44C622.725 69.728 617.765 63.872 607.845 63.872Z" fill="black"/>
<path d="M517.979 56L537.852 104.384L557.819 56H567.324V121.28H559.163V93.344L560.219 68.192L541.499 113.6H533.628L515.291 68L516.347 93.344V121.28H508.188V56H517.979Z" fill="black"/>
<path d="M454 121.28V56H474.352C480.624 56 485.392 57.664 488.656 60.992C491.984 64.256 493.648 68.64 493.648 74.144V79.232C493.648 84.736 491.984 89.152 488.656 92.48C485.392 95.808 480.624 97.472 474.352 97.472H462.352V121.28H454ZM474.352 63.872H462.352V89.696H474.352C477.808 89.696 480.432 88.768 482.224 86.912C484.08 85.056 485.008 82.496 485.008 79.232V74.144C485.008 70.944 484.08 68.448 482.224 66.656C480.432 64.8 477.808 63.872 474.352 63.872Z" fill="black"/>
<rect x="2.5" y="347.5" width="1071" height="173" rx="27.5" fill="#79DFFF" stroke="black" stroke-width="5"/>
<path d="M951.317 417.952C949.525 417.952 947.413 418.4 944.981 419.296C942.613 420.192 939.733 422.016 936.341 424.768V459.04H928.469V411.52H935.957V418.144C939.349 415.264 942.421 413.28 945.173 412.192C947.989 411.104 950.677 410.56 953.237 410.56C957.653 410.56 961.013 411.968 963.317 414.784C965.685 417.536 966.869 421.472 966.869 426.592V459.04H958.997V427.744C958.997 421.216 956.437 417.952 951.317 417.952Z" fill="black"/>
<path d="M914.164 432.352V438.112C914.164 444.896 912.404 450.24 908.884 454.144C905.428 458.048 900.468 460 894.004 460C887.604 460 882.644 458.048 879.124 454.144C875.604 450.24 873.844 444.896 873.844 438.112V432.352C873.844 425.696 875.572 420.416 879.028 416.512C882.548 412.544 887.54 410.56 894.004 410.56C900.468 410.56 905.428 412.544 908.884 416.512C912.404 420.416 914.164 425.696 914.164 432.352ZM906.004 432.352C906.004 427.808 904.98 424.256 902.932 421.696C900.884 419.072 897.908 417.76 894.004 417.76C890.164 417.76 887.188 419.072 885.076 421.696C883.028 424.256 882.004 427.808 882.004 432.352V438.112C882.004 442.848 883.028 446.496 885.076 449.056C887.188 451.616 890.164 452.896 894.004 452.896C897.908 452.896 900.884 451.616 902.932 449.056C904.98 446.496 906.004 442.848 906.004 438.112V432.352Z" fill="black"/>
<path d="M846.803 452.992C853.203 452.992 856.403 450.816 856.403 446.464C856.403 444.608 855.827 443.136 854.675 442.048C853.523 440.96 851.411 440.032 848.339 439.264L843.059 437.92C839.155 436.96 836.243 435.296 834.323 432.928C832.403 430.496 831.443 427.616 831.443 424.288C831.443 421.856 831.987 419.616 833.075 417.568C834.163 415.456 835.891 413.76 838.259 412.48C840.627 411.2 843.699 410.56 847.475 410.56C849.907 410.56 852.371 410.848 854.867 411.424C857.427 411.936 860.019 412.832 862.643 414.112L860.147 420.736C855.475 418.624 851.251 417.568 847.475 417.568C841.907 417.568 839.123 419.648 839.123 423.808C839.123 425.408 839.635 426.784 840.659 427.936C841.683 429.088 843.603 430.016 846.419 430.72L851.699 432.064C855.923 433.088 859.027 434.752 861.011 437.056C862.995 439.36 863.987 442.336 863.987 445.984C863.987 448.608 863.411 451.008 862.259 453.184C861.171 455.296 859.379 456.96 856.883 458.176C854.451 459.392 851.155 460 846.995 460C844.243 460 841.491 459.712 838.739 459.136C836.051 458.56 833.267 457.632 830.387 456.352L832.499 449.824C835.251 450.912 837.747 451.712 839.987 452.224C842.227 452.736 844.499 452.992 846.803 452.992Z" fill="black"/>
<path d="M818.697 399.904H809.865V391.072H818.697V399.904ZM799.977 480.448V472.96C803.369 472.96 805.929 472.16 807.657 470.56C809.449 468.96 810.345 465.856 810.345 461.248V411.52H818.217V461.248C818.217 464.96 817.673 468.256 816.585 471.136C815.497 474.016 813.609 476.288 810.921 477.952C808.297 479.616 804.649 480.448 799.977 480.448Z" fill="black"/>
<path d="M797.059 459.04H788.227V450.304H797.059V459.04Z" fill="black"/>
<path d="M762.146 452.992C768.546 452.992 771.746 450.816 771.746 446.464C771.746 444.608 771.17 443.136 770.018 442.048C768.866 440.96 766.754 440.032 763.682 439.264L758.402 437.92C754.498 436.96 751.586 435.296 749.666 432.928C747.746 430.496 746.786 427.616 746.786 424.288C746.786 421.856 747.33 419.616 748.418 417.568C749.506 415.456 751.234 413.76 753.602 412.48C755.97 411.2 759.042 410.56 762.818 410.56C765.25 410.56 767.714 410.848 770.21 411.424C772.77 411.936 775.362 412.832 777.986 414.112L775.49 420.736C770.818 418.624 766.594 417.568 762.818 417.568C757.25 417.568 754.466 419.648 754.466 423.808C754.466 425.408 754.978 426.784 756.002 427.936C757.026 429.088 758.946 430.016 761.762 430.72L767.042 432.064C771.266 433.088 774.37 434.752 776.354 437.056C778.338 439.36 779.33 442.336 779.33 445.984C779.33 448.608 778.754 451.008 777.602 453.184C776.514 455.296 774.722 456.96 772.226 458.176C769.794 459.392 766.498 460 762.338 460C759.586 460 756.834 459.712 754.082 459.136C751.394 458.56 748.61 457.632 745.73 456.352L747.842 449.824C750.594 450.912 753.09 451.712 755.33 452.224C757.57 452.736 759.842 452.992 762.146 452.992Z" fill="black"/>
<path d="M736.62 456.256C733.74 457.664 730.86 458.624 727.98 459.136C725.1 459.712 722.444 460 720.012 460C713.164 460 708.044 458.048 704.652 454.144C701.324 450.24 699.66 444.896 699.66 438.112V432.352C699.66 425.76 701.324 420.48 704.652 416.512C708.044 412.544 712.812 410.56 718.956 410.56C722.22 410.56 725.196 411.232 727.884 412.576C730.636 413.856 732.812 415.84 734.412 418.528C736.076 421.152 736.908 424.544 736.908 428.704C736.908 431.392 736.524 434.464 735.756 437.92H707.436V438.112C707.436 442.976 708.428 446.656 710.412 449.152C712.46 451.648 715.724 452.896 720.204 452.896C722.252 452.896 724.492 452.64 726.924 452.128C729.42 451.616 731.852 450.816 734.22 449.728L736.62 456.256ZM718.956 417.472C715.244 417.472 712.428 418.688 710.508 421.12C708.652 423.488 707.628 426.848 707.436 431.2H728.94C729.132 430.048 729.228 428.96 729.228 427.936C729.228 424.352 728.204 421.728 726.156 420.064C724.172 418.336 721.772 417.472 718.956 417.472Z" fill="black"/>
<path d="M691.8 457.312C688.216 459.104 684.408 460 680.376 460C676.92 460 674.2 459.296 672.216 457.888C670.296 456.48 668.92 454.592 668.088 452.224C667.32 449.856 666.936 447.232 666.936 444.352V418.432H658.68V411.52H666.936V398.272H674.808V411.52H690.36V418.432H674.808V444.064C674.808 447.392 675.352 449.696 676.44 450.976C677.592 452.192 679.352 452.8 681.72 452.8C682.872 452.8 684.056 452.672 685.272 452.416C686.552 452.096 687.928 451.584 689.4 450.88L691.8 457.312Z" fill="black"/>
<path d="M653.096 459.52C650.152 459.52 647.784 458.848 645.992 457.504C644.264 456.16 643.048 454.496 642.344 452.512C639.208 455.264 636.36 457.216 633.8 458.368C631.24 459.456 628.68 460 626.12 460C621.96 460 618.888 458.656 616.904 455.968C614.92 453.28 613.928 449.984 613.928 446.08C613.928 443.456 614.408 441.12 615.368 439.072C616.328 437.024 617.96 435.424 620.264 434.272C622.568 433.056 625.672 432.448 629.576 432.448C631.304 432.448 633.192 432.576 635.24 432.832C637.288 433.024 639.368 433.28 641.48 433.6V427.168C641.48 423.584 640.68 421.152 639.08 419.872C637.544 418.528 635.272 417.856 632.264 417.856C628.168 417.856 623.592 418.976 618.536 421.216L616.04 414.688C618.984 413.344 621.8 412.32 624.488 411.616C627.176 410.912 629.896 410.56 632.648 410.56C637.128 410.56 640.552 411.296 642.92 412.768C645.288 414.24 646.92 416.192 647.816 418.624C648.712 421.056 649.16 423.712 649.16 426.592V447.136C649.16 448.608 649.448 449.856 650.024 450.88C650.6 451.84 651.752 452.32 653.48 452.32H654.536V459.52H653.096ZM621.704 445.984C621.704 448.16 622.216 449.92 623.24 451.264C624.264 452.608 625.736 453.28 627.656 453.28C629.32 453.28 631.24 452.8 633.416 451.84C635.592 450.816 638.28 448.8 641.48 445.792V439.744C637.128 439.04 633.288 438.688 629.96 438.688C627.016 438.688 624.904 439.296 623.624 440.512C622.344 441.728 621.704 443.552 621.704 445.984Z" fill="black"/>
<path d="M592.936 447.52V388H600.808V447.136C600.808 448.864 601.064 450.176 601.576 451.072C602.152 451.904 603.272 452.32 604.936 452.32H606.472V459.52H604.264C600.04 459.52 597.096 458.4 595.432 456.16C593.768 453.92 592.936 451.04 592.936 447.52Z" fill="black"/>
<path d="M558.695 460C555.111 460 551.4 459.264 547.56 457.792V479.488H539.688V411.52H547.176V418.24C550.12 415.424 552.808 413.44 555.24 412.288C557.672 411.136 560.168 410.56 562.728 410.56C567.784 410.56 571.656 412.48 574.344 416.32C577.096 420.16 578.471 425.568 578.471 432.544V438.112C578.471 444.768 576.776 450.08 573.384 454.048C570.056 458.016 565.159 460 558.695 460ZM560.807 417.952C558.951 417.952 557.032 418.432 555.048 419.392C553.064 420.352 550.568 422.304 547.56 425.248V450.592C549.416 451.424 551.208 452.032 552.936 452.416C554.664 452.736 556.359 452.896 558.023 452.896C562.375 452.896 565.511 451.584 567.431 448.96C569.351 446.272 570.311 442.656 570.311 438.112V432.544C570.311 427.552 569.511 423.872 567.911 421.504C566.375 419.136 564.007 417.952 560.807 417.952Z" fill="black"/>
<path d="M478.618 417.952C476.826 417.952 474.81 418.432 472.57 419.392C470.33 420.288 467.514 422.08 464.122 424.768V459.04H456.25V411.52H463.738V418.144C467.13 415.328 470.138 413.376 472.762 412.288C475.386 411.136 477.978 410.56 480.538 410.56C483.546 410.56 486.042 411.264 488.026 412.672C490.01 414.016 491.482 415.968 492.442 418.528C495.962 415.52 499.098 413.44 501.85 412.288C504.666 411.136 507.418 410.56 510.106 410.56C514.33 410.56 517.562 411.968 519.802 414.784C522.042 417.536 523.162 421.472 523.162 426.592V459.04H515.29V427.744C515.29 421.216 512.922 417.952 508.186 417.952C506.394 417.952 504.346 418.432 502.042 419.392C499.802 420.288 496.986 422.08 493.594 424.768C493.658 425.024 493.69 425.312 493.69 425.632C493.69 425.952 493.69 426.272 493.69 426.592V459.04H485.818V427.744C485.818 421.216 483.418 417.952 478.618 417.952Z" fill="black"/>
<path d="M442.339 456.256C439.459 457.664 436.579 458.624 433.699 459.136C430.819 459.712 428.163 460 425.731 460C418.883 460 413.763 458.048 410.371 454.144C407.043 450.24 405.379 444.896 405.379 438.112V432.352C405.379 425.76 407.043 420.48 410.371 416.512C413.763 412.544 418.531 410.56 424.675 410.56C427.939 410.56 430.915 411.232 433.603 412.576C436.355 413.856 438.531 415.84 440.131 418.528C441.795 421.152 442.627 424.544 442.627 428.704C442.627 431.392 442.243 434.464 441.475 437.92H413.155V438.112C413.155 442.976 414.147 446.656 416.131 449.152C418.179 451.648 421.443 452.896 425.923 452.896C427.971 452.896 430.211 452.64 432.643 452.128C435.139 451.616 437.571 450.816 439.939 449.728L442.339 456.256ZM424.675 417.472C420.963 417.472 418.147 418.688 416.227 421.12C414.371 423.488 413.347 426.848 413.155 431.2H434.659C434.851 430.048 434.947 428.96 434.947 427.936C434.947 424.352 433.923 421.728 431.875 420.064C429.891 418.336 427.491 417.472 424.675 417.472Z" fill="black"/>
<path d="M397.518 457.312C393.934 459.104 390.126 460 386.094 460C382.638 460 379.918 459.296 377.934 457.888C376.014 456.48 374.638 454.592 373.806 452.224C373.038 449.856 372.654 447.232 372.654 444.352V418.432H364.398V411.52H372.654V398.272H380.526V411.52H396.078V418.432H380.526V444.064C380.526 447.392 381.07 449.696 382.158 450.976C383.31 452.192 385.07 452.8 387.438 452.8C388.59 452.8 389.774 452.672 390.99 452.416C392.27 452.096 393.646 451.584 395.118 450.88L397.518 457.312Z" fill="black"/>
<path d="M345.998 447.52V388H353.87V447.136C353.87 448.864 354.126 450.176 354.638 451.072C355.214 451.904 356.334 452.32 357.998 452.32H359.534V459.52H357.326C353.102 459.52 350.158 458.4 348.494 456.16C346.83 453.92 345.998 451.04 345.998 447.52Z" fill="black"/>
<path d="M332.183 456.256C329.303 457.664 326.423 458.624 323.543 459.136C320.663 459.712 318.007 460 315.575 460C308.727 460 303.607 458.048 300.215 454.144C296.887 450.24 295.223 444.896 295.223 438.112V432.352C295.223 425.76 296.887 420.48 300.215 416.512C303.607 412.544 308.375 410.56 314.519 410.56C317.783 410.56 320.759 411.232 323.447 412.576C326.199 413.856 328.375 415.84 329.975 418.528C331.639 421.152 332.471 424.544 332.471 428.704C332.471 431.392 332.087 434.464 331.319 437.92H302.999V438.112C302.999 442.976 303.991 446.656 305.975 449.152C308.023 451.648 311.287 452.896 315.767 452.896C317.815 452.896 320.055 452.64 322.487 452.128C324.983 451.616 327.415 450.816 329.783 449.728L332.183 456.256ZM314.519 417.472C310.807 417.472 307.991 418.688 306.071 421.12C304.215 423.488 303.191 426.848 302.999 431.2H324.503C324.695 430.048 324.791 428.96 324.791 427.936C324.791 424.352 323.767 421.728 321.719 420.064C319.735 418.336 317.335 417.472 314.519 417.472Z" fill="black"/>
<path d="M273.27 459.04V452.416C270.326 455.232 267.638 457.216 265.206 458.368C262.838 459.456 260.374 460 257.814 460C252.758 460 248.854 458.08 246.102 454.24C243.414 450.4 242.07 445.024 242.07 438.112V432.544C242.07 425.824 243.734 420.48 247.062 416.512C250.454 412.544 255.35 410.56 261.75 410.56C263.606 410.56 265.462 410.752 267.318 411.136C269.174 411.52 271.03 412.064 272.886 412.768V388H280.758V459.04H273.27ZM250.23 438.112C250.23 443.104 250.998 446.784 252.534 449.152C254.134 451.456 256.502 452.608 259.638 452.608C261.494 452.608 263.414 452.16 265.398 451.264C267.382 450.304 269.878 448.352 272.886 445.408V420.064C271.03 419.232 269.238 418.656 267.51 418.336C265.782 417.952 264.086 417.76 262.422 417.76C258.07 417.76 254.934 419.072 253.014 421.696C251.158 424.32 250.23 427.936 250.23 432.544V438.112Z" fill="black"/>
<path d="M230.07 432.352V438.112C230.07 444.896 228.31 450.24 224.79 454.144C221.334 458.048 216.374 460 209.91 460C203.51 460 198.55 458.048 195.03 454.144C191.51 450.24 189.75 444.896 189.75 438.112V432.352C189.75 425.696 191.478 420.416 194.934 416.512C198.454 412.544 203.446 410.56 209.91 410.56C216.374 410.56 221.334 412.544 224.79 416.512C228.31 420.416 230.07 425.696 230.07 432.352ZM221.91 432.352C221.91 427.808 220.886 424.256 218.838 421.696C216.79 419.072 213.814 417.76 209.91 417.76C206.07 417.76 203.094 419.072 200.982 421.696C198.934 424.256 197.91 427.808 197.91 432.352V438.112C197.91 442.848 198.934 446.496 200.982 449.056C203.094 451.616 206.07 452.896 209.91 452.896C213.814 452.896 216.79 451.616 218.838 449.056C220.886 446.496 221.91 442.848 221.91 438.112V432.352Z" fill="black"/>
<path d="M131.368 417.952C129.576 417.952 127.56 418.432 125.32 419.392C123.08 420.288 120.264 422.08 116.872 424.768V459.04H109V411.52H116.488V418.144C119.88 415.328 122.888 413.376 125.512 412.288C128.136 411.136 130.728 410.56 133.288 410.56C136.296 410.56 138.792 411.264 140.776 412.672C142.76 414.016 144.232 415.968 145.192 418.528C148.712 415.52 151.848 413.44 154.6 412.288C157.416 411.136 160.168 410.56 162.856 410.56C167.08 410.56 170.312 411.968 172.552 414.784C174.792 417.536 175.912 421.472 175.912 426.592V459.04H168.04V427.744C168.04 421.216 165.672 417.952 160.936 417.952C159.144 417.952 157.096 418.432 154.792 419.392C152.552 420.288 149.736 422.08 146.344 424.768C146.408 425.024 146.44 425.312 146.44 425.632C146.44 425.952 146.44 426.272 146.44 426.592V459.04H138.568V427.744C138.568 421.216 136.168 417.952 131.368 417.952Z" fill="black"/>
<rect x="172.5" y="868.5" width="739" height="172" rx="27.5" fill="#79DFFF" stroke="black" stroke-width="5"/>
<path d="M797.161 937.952C795.369 937.952 793.257 938.4 790.825 939.296C788.457 940.192 785.577 942.016 782.185 944.768V979.04H774.312V931.52H781.8V938.144C785.192 935.264 788.264 933.28 791.016 932.192C793.832 931.104 796.521 930.56 799.081 930.56C803.497 930.56 806.857 931.968 809.161 934.784C811.529 937.536 812.713 941.472 812.713 946.592V979.04H804.841V947.744C804.841 941.216 802.281 937.952 797.161 937.952Z" fill="black"/>
<path d="M760.008 952.352V958.112C760.008 964.896 758.247 970.24 754.727 974.144C751.271 978.048 746.312 980 739.848 980C733.448 980 728.487 978.048 724.967 974.144C721.447 970.24 719.688 964.896 719.688 958.112V952.352C719.688 945.696 721.415 940.416 724.871 936.512C728.391 932.544 733.384 930.56 739.848 930.56C746.312 930.56 751.271 932.544 754.727 936.512C758.247 940.416 760.008 945.696 760.008 952.352ZM751.848 952.352C751.848 947.808 750.823 944.256 748.775 941.696C746.727 939.072 743.752 937.76 739.848 937.76C736.008 937.76 733.031 939.072 730.919 941.696C728.871 944.256 727.848 947.808 727.848 952.352V958.112C727.848 962.848 728.871 966.496 730.919 969.056C733.031 971.616 736.008 972.896 739.848 972.896C743.752 972.896 746.727 971.616 748.775 969.056C750.823 966.496 751.848 962.848 751.848 958.112V952.352Z" fill="black"/>
<path d="M692.646 972.992C699.046 972.992 702.246 970.816 702.246 966.464C702.246 964.608 701.67 963.136 700.518 962.048C699.366 960.96 697.254 960.032 694.182 959.264L688.902 957.92C684.998 956.96 682.086 955.296 680.166 952.928C678.246 950.496 677.286 947.616 677.286 944.288C677.286 941.856 677.83 939.616 678.918 937.568C680.006 935.456 681.734 933.76 684.102 932.48C686.47 931.2 689.542 930.56 693.318 930.56C695.75 930.56 698.214 930.848 700.71 931.424C703.27 931.936 705.862 932.832 708.486 934.112L705.99 940.736C701.318 938.624 697.094 937.568 693.318 937.568C687.75 937.568 684.966 939.648 684.966 943.808C684.966 945.408 685.478 946.784 686.502 947.936C687.526 949.088 689.446 950.016 692.262 950.72L697.542 952.064C701.766 953.088 704.87 954.752 706.854 957.056C708.838 959.36 709.83 962.336 709.83 965.984C709.83 968.608 709.254 971.008 708.102 973.184C707.014 975.296 705.222 976.96 702.726 978.176C700.294 979.392 696.998 980 692.838 980C690.086 980 687.334 979.712 684.582 979.136C681.894 978.56 679.11 977.632 676.23 976.352L678.342 969.824C681.094 970.912 683.59 971.712 685.83 972.224C688.07 972.736 690.342 972.992 692.646 972.992Z" fill="black"/>
<path d="M664.54 919.904H655.708V911.072H664.54V919.904ZM645.82 1000.45V992.96C649.212 992.96 651.772 992.16 653.5 990.56C655.292 988.96 656.188 985.856 656.188 981.248V931.52H664.06V981.248C664.06 984.96 663.516 988.256 662.428 991.136C661.34 994.016 659.452 996.288 656.764 997.952C654.14 999.616 650.492 1000.45 645.82 1000.45Z" fill="black"/>
<path d="M642.902 979.04H634.07V970.304H642.902V979.04Z" fill="black"/>
<path d="M607.99 972.992C614.39 972.992 617.59 970.816 617.59 966.464C617.59 964.608 617.014 963.136 615.862 962.048C614.71 960.96 612.598 960.032 609.526 959.264L604.246 957.92C600.342 956.96 597.43 955.296 595.51 952.928C593.59 950.496 592.63 947.616 592.63 944.288C592.63 941.856 593.174 939.616 594.262 937.568C595.35 935.456 597.078 933.76 599.446 932.48C601.814 931.2 604.886 930.56 608.662 930.56C611.094 930.56 613.558 930.848 616.054 931.424C618.614 931.936 621.206 932.832 623.83 934.112L621.334 940.736C616.662 938.624 612.438 937.568 608.662 937.568C603.094 937.568 600.31 939.648 600.31 943.808C600.31 945.408 600.822 946.784 601.846 947.936C602.87 949.088 604.79 950.016 607.606 950.72L612.886 952.064C617.11 953.088 620.214 954.752 622.198 957.056C624.182 959.36 625.174 962.336 625.174 965.984C625.174 968.608 624.598 971.008 623.446 973.184C622.358 975.296 620.566 976.96 618.07 978.176C615.638 979.392 612.342 980 608.182 980C605.43 980 602.678 979.712 599.926 979.136C597.238 978.56 594.454 977.632 591.574 976.352L593.686 969.824C596.438 970.912 598.934 971.712 601.174 972.224C603.414 972.736 605.686 972.992 607.99 972.992Z" fill="black"/>
<path d="M564.379 937.952C562.587 937.952 560.475 938.4 558.043 939.296C555.675 940.192 552.795 942.016 549.403 944.768V979.04H541.531V931.52H549.019V938.144C552.411 935.264 555.483 933.28 558.235 932.192C561.051 931.104 563.739 930.56 566.299 930.56C570.715 930.56 574.075 931.968 576.379 934.784C578.747 937.536 579.931 941.472 579.931 946.592V979.04H572.059V947.744C572.059 941.216 569.499 937.952 564.379 937.952Z" fill="black"/>
<path d="M527.226 952.352V958.112C527.226 964.896 525.466 970.24 521.946 974.144C518.49 978.048 513.53 980 507.066 980C500.666 980 495.706 978.048 492.186 974.144C488.666 970.24 486.906 964.896 486.906 958.112V952.352C486.906 945.696 488.634 940.416 492.09 936.512C495.61 932.544 500.602 930.56 507.066 930.56C513.53 930.56 518.49 932.544 521.946 936.512C525.466 940.416 527.226 945.696 527.226 952.352ZM519.066 952.352C519.066 947.808 518.042 944.256 515.994 941.696C513.946 939.072 510.97 937.76 507.066 937.76C503.226 937.76 500.25 939.072 498.138 941.696C496.09 944.256 495.066 947.808 495.066 952.352V958.112C495.066 962.848 496.09 966.496 498.138 969.056C500.25 971.616 503.226 972.896 507.066 972.896C510.97 972.896 513.946 971.616 515.994 969.056C518.042 966.496 519.066 962.848 519.066 958.112V952.352Z" fill="black"/>
<path d="M473.102 919.904H464.27V911.072H473.102V919.904ZM472.622 979.04H464.75V931.52H472.622V979.04Z" fill="black"/>
<path d="M454.393 977.312C450.809 979.104 447.001 980 442.969 980C439.513 980 436.793 979.296 434.809 977.888C432.889 976.48 431.513 974.592 430.681 972.224C429.913 969.856 429.529 967.232 429.529 964.352V938.432H421.273V931.52H429.529V918.272H437.401V931.52H452.953V938.432H437.401V964.064C437.401 967.392 437.945 969.696 439.033 970.976C440.185 972.192 441.945 972.8 444.313 972.8C445.465 972.8 446.649 972.672 447.865 972.416C449.145 972.096 450.521 971.584 451.993 970.88L454.393 977.312Z" fill="black"/>
<path d="M415.689 979.52C412.745 979.52 410.377 978.848 408.585 977.504C406.857 976.16 405.641 974.496 404.937 972.512C401.801 975.264 398.953 977.216 396.393 978.368C393.833 979.456 391.273 980 388.713 980C384.553 980 381.481 978.656 379.497 975.968C377.513 973.28 376.521 969.984 376.521 966.08C376.521 963.456 377.001 961.12 377.961 959.072C378.921 957.024 380.553 955.424 382.857 954.272C385.161 953.056 388.265 952.448 392.169 952.448C393.897 952.448 395.785 952.576 397.833 952.832C399.881 953.024 401.961 953.28 404.073 953.6V947.168C404.073 943.584 403.273 941.152 401.673 939.872C400.137 938.528 397.865 937.856 394.857 937.856C390.761 937.856 386.185 938.976 381.129 941.216L378.633 934.688C381.577 933.344 384.393 932.32 387.081 931.616C389.769 930.912 392.489 930.56 395.241 930.56C399.721 930.56 403.145 931.296 405.513 932.768C407.881 934.24 409.513 936.192 410.409 938.624C411.305 941.056 411.753 943.712 411.753 946.592V967.136C411.753 968.608 412.041 969.856 412.617 970.88C413.193 971.84 414.345 972.32 416.073 972.32H417.129V979.52H415.689ZM384.297 965.984C384.297 968.16 384.809 969.92 385.833 971.264C386.857 972.608 388.329 973.28 390.249 973.28C391.913 973.28 393.833 972.8 396.009 971.84C398.185 970.816 400.873 968.8 404.073 965.792V959.744C399.721 959.04 395.881 958.688 392.553 958.688C389.609 958.688 387.497 959.296 386.217 960.512C384.937 961.728 384.297 963.552 384.297 965.984Z" fill="black"/>
<path d="M355.529 967.52V908H363.401V967.136C363.401 968.864 363.657 970.176 364.169 971.072C364.745 971.904 365.865 972.32 367.529 972.32H369.065V979.52H366.857C362.633 979.52 359.689 978.4 358.025 976.16C356.361 973.92 355.529 971.04 355.529 967.52Z" fill="black"/>
<path d="M341.714 976.256C338.834 977.664 335.954 978.624 333.074 979.136C330.194 979.712 327.538 980 325.106 980C318.258 980 313.138 978.048 309.746 974.144C306.418 970.24 304.754 964.896 304.754 958.112V952.352C304.754 945.76 306.418 940.48 309.746 936.512C313.138 932.544 317.906 930.56 324.05 930.56C327.314 930.56 330.29 931.232 332.978 932.576C335.73 933.856 337.906 935.84 339.506 938.528C341.17 941.152 342.002 944.544 342.002 948.704C342.002 951.392 341.618 954.464 340.85 957.92H312.53V958.112C312.53 962.976 313.522 966.656 315.506 969.152C317.554 971.648 320.818 972.896 325.298 972.896C327.346 972.896 329.586 972.64 332.018 972.128C334.514 971.616 336.946 970.816 339.314 969.728L341.714 976.256ZM324.05 937.472C320.338 937.472 317.522 938.688 315.602 941.12C313.746 943.488 312.722 946.848 312.53 951.2H334.034C334.226 950.048 334.322 948.96 334.322 947.936C334.322 944.352 333.298 941.728 331.25 940.064C329.266 938.336 326.866 937.472 324.05 937.472Z" fill="black"/>
<path d="M296.96 938.432C294.08 938.432 291.264 938.944 288.512 939.968C285.824 940.992 282.944 942.944 279.872 945.824V979.04H272V931.52H279.488V939.2C282.752 936 285.728 933.76 288.416 932.48C291.168 931.2 294.016 930.56 296.96 930.56V938.432Z" fill="black"/>
<rect x="181.5" y="1218.5" width="721" height="172" rx="27.5" fill="#79DFFF" stroke="black" stroke-width="5"/>
<path d="M785.121 1288.91C783.329 1288.91 781.217 1289.36 778.785 1290.26C776.417 1291.15 773.537 1292.98 770.145 1295.73V1330H762.273V1282.48H769.761V1289.1C773.153 1286.22 776.225 1284.24 778.977 1283.15C781.793 1282.06 784.481 1281.52 787.041 1281.52C791.457 1281.52 794.817 1282.93 797.121 1285.74C799.489 1288.5 800.673 1292.43 800.673 1297.55V1330H792.801V1298.7C792.801 1292.18 790.241 1288.91 785.121 1288.91Z" fill="black"/>
<path d="M747.966 1303.31V1309.07C747.966 1315.86 746.206 1321.2 742.686 1325.1C739.23 1329.01 734.27 1330.96 727.806 1330.96C721.406 1330.96 716.446 1329.01 712.926 1325.1C709.406 1321.2 707.646 1315.86 707.646 1309.07V1303.31C707.646 1296.66 709.374 1291.38 712.83 1287.47C716.35 1283.5 721.342 1281.52 727.806 1281.52C734.27 1281.52 739.23 1283.5 742.686 1287.47C746.206 1291.38 747.966 1296.66 747.966 1303.31ZM739.806 1303.31C739.806 1298.77 738.782 1295.22 736.734 1292.66C734.686 1290.03 731.71 1288.72 727.806 1288.72C723.966 1288.72 720.99 1290.03 718.878 1292.66C716.83 1295.22 715.806 1298.77 715.806 1303.31V1309.07C715.806 1313.81 716.83 1317.46 718.878 1320.02C720.99 1322.58 723.966 1323.86 727.806 1323.86C731.71 1323.86 734.686 1322.58 736.734 1320.02C738.782 1317.46 739.806 1313.81 739.806 1309.07V1303.31Z" fill="black"/>
<path d="M680.607 1323.95C687.007 1323.95 690.207 1321.78 690.207 1317.42C690.207 1315.57 689.631 1314.1 688.479 1313.01C687.327 1311.92 685.215 1310.99 682.143 1310.22L676.863 1308.88C672.959 1307.92 670.047 1306.26 668.127 1303.89C666.207 1301.46 665.247 1298.58 665.247 1295.25C665.247 1292.82 665.791 1290.58 666.879 1288.53C667.967 1286.42 669.695 1284.72 672.063 1283.44C674.431 1282.16 677.503 1281.52 681.279 1281.52C683.711 1281.52 686.175 1281.81 688.671 1282.38C691.231 1282.9 693.823 1283.79 696.447 1285.07L693.951 1291.7C689.279 1289.58 685.055 1288.53 681.279 1288.53C675.711 1288.53 672.927 1290.61 672.927 1294.77C672.927 1296.37 673.439 1297.74 674.463 1298.9C675.487 1300.05 677.407 1300.98 680.223 1301.68L685.503 1303.02C689.727 1304.05 692.831 1305.71 694.815 1308.02C696.799 1310.32 697.791 1313.3 697.791 1316.94C697.791 1319.57 697.215 1321.97 696.063 1324.14C694.975 1326.26 693.183 1327.92 690.687 1329.14C688.255 1330.35 684.959 1330.96 680.799 1330.96C678.047 1330.96 675.295 1330.67 672.543 1330.1C669.855 1329.52 667.071 1328.59 664.191 1327.31L666.303 1320.78C669.055 1321.87 671.551 1322.67 673.791 1323.18C676.031 1323.7 678.303 1323.95 680.607 1323.95Z" fill="black"/>
<path d="M652.499 1270.86H643.667V1262.03H652.499V1270.86ZM633.779 1351.41V1343.92C637.171 1343.92 639.731 1343.12 641.459 1341.52C643.251 1339.92 644.147 1336.82 644.147 1332.21V1282.48H652.019V1332.21C652.019 1335.92 651.475 1339.22 650.387 1342.1C649.299 1344.98 647.411 1347.25 644.723 1348.91C642.099 1350.58 638.451 1351.41 633.779 1351.41Z" fill="black"/>
<path d="M630.863 1330H622.031V1321.26H630.863V1330Z" fill="black"/>
<path d="M595.951 1323.95C602.351 1323.95 605.551 1321.78 605.551 1317.42C605.551 1315.57 604.975 1314.1 603.823 1313.01C602.671 1311.92 600.559 1310.99 597.487 1310.22L592.207 1308.88C588.303 1307.92 585.391 1306.26 583.471 1303.89C581.551 1301.46 580.591 1298.58 580.591 1295.25C580.591 1292.82 581.135 1290.58 582.223 1288.53C583.311 1286.42 585.039 1284.72 587.407 1283.44C589.775 1282.16 592.847 1281.52 596.623 1281.52C599.055 1281.52 601.519 1281.81 604.015 1282.38C606.575 1282.9 609.167 1283.79 611.791 1285.07L609.295 1291.7C604.623 1289.58 600.399 1288.53 596.623 1288.53C591.055 1288.53 588.271 1290.61 588.271 1294.77C588.271 1296.37 588.783 1297.74 589.807 1298.9C590.831 1300.05 592.751 1300.98 595.567 1301.68L600.847 1303.02C605.071 1304.05 608.175 1305.71 610.159 1308.02C612.143 1310.32 613.135 1313.3 613.135 1316.94C613.135 1319.57 612.559 1321.97 611.407 1324.14C610.319 1326.26 608.527 1327.92 606.031 1329.14C603.599 1330.35 600.303 1330.96 596.143 1330.96C593.391 1330.96 590.639 1330.67 587.887 1330.1C585.199 1329.52 582.415 1328.59 579.535 1327.31L581.647 1320.78C584.399 1321.87 586.895 1322.67 589.135 1323.18C591.375 1323.7 593.647 1323.95 595.951 1323.95Z" fill="black"/>
<path d="M573.979 1328.27C570.395 1330.06 566.587 1330.96 562.555 1330.96C559.099 1330.96 556.379 1330.26 554.395 1328.85C552.475 1327.44 551.099 1325.55 550.267 1323.18C549.499 1320.82 549.115 1318.19 549.115 1315.31V1289.39H540.859V1282.48H549.115V1269.23H556.987V1282.48H572.539V1289.39H556.987V1315.02C556.987 1318.35 557.531 1320.66 558.619 1321.94C559.771 1323.15 561.531 1323.76 563.899 1323.76C565.051 1323.76 566.235 1323.63 567.451 1323.38C568.731 1323.06 570.107 1322.54 571.579 1321.84L573.979 1328.27Z" fill="black"/>
<path d="M522.457 1318.48V1258.96H530.329V1318.1C530.329 1319.82 530.585 1321.14 531.097 1322.03C531.673 1322.86 532.793 1323.28 534.457 1323.28H535.993V1330.48H533.785C529.561 1330.48 526.617 1329.36 524.953 1327.12C523.289 1324.88 522.457 1322 522.457 1318.48Z" fill="black"/>
<path d="M498.21 1330V1323.28C494.882 1326.16 491.906 1328.18 489.282 1329.33C486.658 1330.42 484.034 1330.96 481.41 1330.96C477.186 1330.96 473.954 1329.58 471.714 1326.83C469.474 1324.02 468.354 1320.08 468.354 1315.02V1282.48H476.226V1313.87C476.226 1317.2 476.802 1319.66 477.954 1321.26C479.17 1322.8 480.962 1323.57 483.33 1323.57C485.122 1323.57 487.138 1323.12 489.378 1322.22C491.618 1321.33 494.402 1319.54 497.73 1316.85V1282.48H505.602V1330H498.21Z" fill="black"/>
<path d="M456.338 1330.48C453.394 1330.48 451.026 1329.81 449.234 1328.46C447.506 1327.12 446.29 1325.46 445.586 1323.47C442.45 1326.22 439.602 1328.18 437.042 1329.33C434.482 1330.42 431.922 1330.96 429.362 1330.96C425.202 1330.96 422.13 1329.62 420.146 1326.93C418.162 1324.24 417.17 1320.94 417.17 1317.04C417.17 1314.42 417.65 1312.08 418.61 1310.03C419.57 1307.98 421.202 1306.38 423.506 1305.23C425.81 1304.02 428.914 1303.41 432.818 1303.41C434.546 1303.41 436.434 1303.54 438.482 1303.79C440.53 1303.98 442.61 1304.24 444.722 1304.56V1298.13C444.722 1294.54 443.922 1292.11 442.322 1290.83C440.786 1289.49 438.514 1288.82 435.506 1288.82C431.41 1288.82 426.834 1289.94 421.778 1292.18L419.282 1285.65C422.226 1284.3 425.042 1283.28 427.73 1282.58C430.418 1281.87 433.138 1281.52 435.89 1281.52C440.37 1281.52 443.794 1282.26 446.162 1283.73C448.53 1285.2 450.162 1287.15 451.058 1289.58C451.954 1292.02 452.402 1294.67 452.402 1297.55V1318.1C452.402 1319.57 452.69 1320.82 453.266 1321.84C453.842 1322.8 454.994 1323.28 456.722 1323.28H457.778V1330.48H456.338ZM424.946 1316.94C424.946 1319.12 425.458 1320.88 426.482 1322.22C427.506 1323.57 428.978 1324.24 430.898 1324.24C432.562 1324.24 434.482 1323.76 436.658 1322.8C438.834 1321.78 441.522 1319.76 444.722 1316.75V1310.7C440.37 1310 436.53 1309.65 433.202 1309.65C430.258 1309.65 428.146 1310.26 426.866 1311.47C425.586 1312.69 424.946 1314.51 424.946 1316.94Z" fill="black"/>
<path d="M412.983 1289.39H397.431V1330H389.559V1289.39H381.303V1282.48H389.559V1274.61C389.559 1271.66 390.039 1268.94 390.999 1266.45C392.023 1263.89 393.655 1261.84 395.895 1260.3C398.135 1258.77 401.111 1258 404.823 1258C406.679 1258 408.631 1258.22 410.679 1258.67C412.791 1259.06 414.743 1259.66 416.535 1260.5L414.327 1267.12C411.063 1265.84 408.215 1265.2 405.783 1265.2C403.095 1265.2 401.015 1265.94 399.543 1267.41C398.135 1268.88 397.431 1271.25 397.431 1274.51V1282.48H412.983V1289.39Z" fill="black"/>
<path d="M374.112 1327.22C371.232 1328.62 368.352 1329.58 365.472 1330.1C362.592 1330.67 359.936 1330.96 357.504 1330.96C350.656 1330.96 345.536 1329.01 342.144 1325.1C338.816 1321.2 337.152 1315.86 337.152 1309.07V1303.31C337.152 1296.72 338.816 1291.44 342.144 1287.47C345.536 1283.5 350.304 1281.52 356.448 1281.52C359.712 1281.52 362.688 1282.19 365.376 1283.54C368.128 1284.82 370.304 1286.8 371.904 1289.49C373.568 1292.11 374.4 1295.5 374.4 1299.66C374.4 1302.35 374.016 1305.42 373.248 1308.88H344.928V1309.07C344.928 1313.94 345.92 1317.62 347.904 1320.11C349.952 1322.61 353.216 1323.86 357.696 1323.86C359.744 1323.86 361.984 1323.6 364.416 1323.09C366.912 1322.58 369.344 1321.78 371.712 1320.69L374.112 1327.22ZM356.448 1288.43C352.736 1288.43 349.92 1289.65 348 1292.08C346.144 1294.45 345.12 1297.81 344.928 1302.16H366.432C366.624 1301.01 366.72 1299.92 366.72 1298.9C366.72 1295.31 365.696 1292.69 363.648 1291.02C361.664 1289.3 359.264 1288.43 356.448 1288.43Z" fill="black"/>
<path d="M315.2 1330V1323.38C312.256 1326.19 309.568 1328.18 307.136 1329.33C304.768 1330.42 302.304 1330.96 299.744 1330.96C294.688 1330.96 290.784 1329.04 288.032 1325.2C285.344 1321.36 284 1315.98 284 1309.07V1303.5C284 1296.78 285.664 1291.44 288.992 1287.47C292.384 1283.5 297.28 1281.52 303.68 1281.52C305.536 1281.52 307.392 1281.71 309.248 1282.1C311.104 1282.48 312.96 1283.02 314.816 1283.73V1258.96H322.688V1330H315.2ZM292.16 1309.07C292.16 1314.06 292.928 1317.74 294.464 1320.11C296.064 1322.42 298.432 1323.57 301.568 1323.57C303.424 1323.57 305.344 1323.12 307.328 1322.22C309.312 1321.26 311.808 1319.31 314.816 1316.37V1291.02C312.96 1290.19 311.168 1289.62 309.44 1289.3C307.712 1288.91 306.016 1288.72 304.352 1288.72C300 1288.72 296.864 1290.03 294.944 1292.66C293.088 1295.28 292.16 1298.9 292.16 1303.5V1309.07Z" fill="black"/>
<path d="M1424.61 181.791C1427.26 179.796 1427.79 176.034 1425.79 173.388L1393.29 130.268C1391.29 127.622 1387.53 127.094 1384.88 129.089C1382.24 131.083 1381.71 134.845 1383.7 137.492L1412.6 175.821L1374.27 204.715C1371.62 206.71 1371.09 210.472 1373.09 213.118C1375.08 215.764 1378.85 216.292 1381.49 214.297L1424.61 181.791ZM793.166 94.9418L1420.17 182.942L1421.83 171.058L794.834 83.0582L793.166 94.9418Z" fill="#00E94F"/>
<path d="M3822.24 703.243C3824.59 700.899 3824.59 697.101 3822.24 694.757L3784.06 656.574C3781.72 654.23 3777.92 654.23 3775.57 656.574C3773.23 658.917 3773.23 662.716 3775.57 665.059L3809.51 699L3775.57 732.941C3773.23 735.284 3773.23 739.083 3775.57 741.426C3777.92 743.77 3781.72 743.77 3784.06 741.426L3822.24 703.243ZM3524 705H3818V693H3524V705Z" fill="#00E94F"/>
<path d="M2871.77 465.323C2874.71 463.795 2875.85 460.172 2874.32 457.232L2849.41 409.322C2847.88 406.382 2844.26 405.238 2841.32 406.767C2838.38 408.296 2837.23 411.918 2838.76 414.858L2860.91 457.445L2818.32 479.59C2815.38 481.119 2814.24 484.741 2815.77 487.681C2817.3 490.621 2820.92 491.765 2823.86 490.236L2871.77 465.323ZM2240.19 267.721L2867.19 465.721L2870.81 454.278L2243.81 256.279L2240.19 267.721Z" fill="#00E94F"/>
<path d="M2812.66 710.999C2813.76 707.875 2812.12 704.447 2809 703.343L2758.09 685.35C2754.96 684.246 2751.53 685.883 2750.43 689.008C2749.32 692.132 2750.96 695.56 2754.09 696.664L2799.34 712.658L2783.35 757.915C2782.25 761.039 2783.88 764.467 2787.01 765.571C2790.13 766.675 2793.56 765.038 2794.66 761.913L2812.66 710.999ZM2292.59 961.414L2809.59 714.414L2804.41 703.586L2287.41 950.586L2292.59 961.414Z" fill="#00E94F"/>
<path d="M2957.69 976.915C2958.74 973.774 2957.06 970.371 2953.91 969.314L2902.74 952.081C2899.6 951.023 2896.19 952.712 2895.14 955.852C2894.08 958.993 2895.77 962.396 2898.91 963.453L2944.4 978.771L2929.08 1024.26C2928.02 1027.4 2929.71 1030.81 2932.85 1031.86C2935.99 1032.92 2939.4 1031.23 2940.45 1028.09L2957.69 976.915ZM2299.67 1305.37L2954.67 980.375L2949.33 969.625L2294.33 1294.63L2299.67 1305.37Z" fill="#00E94F"/>
<path d="M1426.2 352.998C1427.85 350.128 1426.87 346.458 1424 344.803L1377.22 317.821C1374.35 316.165 1370.68 317.15 1369.03 320.02C1367.37 322.891 1368.36 326.56 1371.23 328.216L1412.8 352.199L1388.82 393.778C1387.17 396.648 1388.15 400.318 1391.02 401.973C1393.89 403.629 1397.56 402.644 1399.22 399.774L1426.2 352.998ZM1109.56 439.795L1422.56 355.795L1419.44 344.205L1106.44 428.205L1109.56 439.795Z" fill="#00E94F"/>
<path d="M1361.24 959.243C1363.59 956.899 1363.59 953.101 1361.24 950.757L1323.06 912.574C1320.72 910.23 1316.92 910.23 1314.57 912.574C1312.23 914.917 1312.23 918.716 1314.57 921.059L1348.51 955L1314.57 988.941C1312.23 991.284 1312.23 995.083 1314.57 997.426C1316.92 999.77 1320.72 999.77 1323.06 997.426L1361.24 959.243ZM971 961H1357V949H971V961Z" fill="#00E94F"/>
<path d="M1361.24 1309.24C1363.59 1306.9 1363.59 1303.1 1361.24 1300.76L1323.06 1262.57C1320.72 1260.23 1316.92 1260.23 1314.57 1262.57C1312.23 1264.92 1312.23 1268.72 1314.57 1271.06L1348.51 1305L1314.57 1338.94C1312.23 1341.28 1312.23 1345.08 1314.57 1347.43C1316.92 1349.77 1320.72 1349.77 1323.06 1347.43L1361.24 1309.24ZM971 1311H1357V1299H971V1311Z" fill="#00E94F"/>
<circle cx="3175" cy="697" r="303.5" fill="#79DFFF" stroke="black" stroke-width="5"/>
<path d="M3380 726.84C3377.95 732.6 3375.42 736.792 3372.42 739.416C3369.47 742.104 3365.34 743.448 3360.03 743.448V735.672C3362.21 735.608 3364.06 735.32 3365.6 734.808C3367.2 734.296 3368.61 733.24 3369.82 731.64C3371.1 730.104 3372.32 727.8 3373.47 724.728L3374.43 722.328L3357.34 674.52H3365.41L3373.38 697.656L3378.27 712.44L3382.98 697.656L3390.75 674.52H3398.53L3380 726.84Z" fill="black"/>
<path d="M3339.33 722.04V715.416C3336.38 718.232 3333.69 720.216 3331.26 721.368C3328.89 722.456 3326.43 723 3323.87 723C3318.81 723 3314.91 721.08 3312.16 717.24C3309.47 713.4 3308.13 708.024 3308.13 701.112V695.544C3308.13 688.824 3309.79 683.48 3313.12 679.512C3316.51 675.544 3321.41 673.56 3327.81 673.56C3329.66 673.56 3331.52 673.752 3333.37 674.136C3335.23 674.52 3337.09 675.064 3338.94 675.768V651H3346.81V722.04H3339.33ZM3316.29 701.112C3316.29 706.104 3317.05 709.784 3318.59 712.152C3320.19 714.456 3322.56 715.608 3325.69 715.608C3327.55 715.608 3329.47 715.16 3331.45 714.264C3333.44 713.304 3335.93 711.352 3338.94 708.408V683.064C3337.09 682.232 3335.29 681.656 3333.57 681.336C3331.84 680.952 3330.14 680.76 3328.48 680.76C3324.13 680.76 3320.99 682.072 3319.07 684.696C3317.21 687.32 3316.29 690.936 3316.29 695.544V701.112Z" fill="black"/>
<path d="M3286.09 722.04V715.32C3282.76 718.2 3279.78 720.216 3277.16 721.368C3274.53 722.456 3271.91 723 3269.29 723C3265.06 723 3261.83 721.624 3259.59 718.872C3257.35 716.056 3256.23 712.12 3256.23 707.064V674.52H3264.1V705.912C3264.1 709.24 3264.68 711.704 3265.83 713.304C3267.05 714.84 3268.84 715.608 3271.21 715.608C3273 715.608 3275.01 715.16 3277.25 714.264C3279.49 713.368 3282.28 711.576 3285.61 708.888V674.52H3293.48V722.04H3286.09Z" fill="black"/>
<path d="M3246.45 720.312C3242.86 722.104 3239.06 723 3235.02 723C3231.57 723 3228.85 722.296 3226.86 720.888C3224.94 719.48 3223.57 717.592 3222.74 715.224C3221.97 712.856 3221.58 710.232 3221.58 707.352V681.432H3213.33V674.52H3221.58V661.272H3229.46V674.52H3245.01V681.432H3229.46V707.064C3229.46 710.392 3230 712.696 3231.09 713.976C3232.24 715.192 3234 715.8 3236.37 715.8C3237.52 715.8 3238.7 715.672 3239.92 715.416C3241.2 715.096 3242.58 714.584 3244.05 713.88L3246.45 720.312Z" fill="black"/>
<path d="M3186.85 715.512C3190.88 715.512 3193.98 714.648 3196.16 712.92C3198.33 711.128 3199.42 708.536 3199.42 705.144C3199.42 702.328 3198.65 699.96 3197.12 698.04C3195.65 696.12 3193.21 694.648 3189.82 693.624L3182.05 691.32C3177.18 689.848 3173.6 687.64 3171.29 684.696C3168.99 681.688 3167.84 678.008 3167.84 673.656C3167.84 670.328 3168.48 667.32 3169.76 664.632C3171.1 661.944 3173.21 659.8 3176.09 658.2C3179.04 656.6 3182.88 655.8 3187.61 655.8C3190.49 655.8 3193.47 656.152 3196.54 656.856C3199.61 657.496 3202.72 658.552 3205.85 660.024L3203.17 667.224C3200.09 665.88 3197.31 664.92 3194.81 664.344C3192.38 663.704 3190.05 663.384 3187.81 663.384C3184.16 663.384 3181.31 664.152 3179.26 665.688C3177.28 667.16 3176.29 669.624 3176.29 673.08C3176.29 675.576 3176.96 677.688 3178.3 679.416C3179.65 681.08 3182.05 682.456 3185.5 683.544L3193.28 685.848C3203.01 688.728 3207.87 694.936 3207.87 704.472C3207.87 709.976 3206.21 714.456 3202.88 717.912C3199.55 721.304 3194.21 723 3186.85 723C3183.84 723 3180.64 722.648 3177.25 721.944C3173.92 721.176 3170.46 719.992 3166.88 718.392L3169.47 711.288C3172.86 712.824 3175.9 713.912 3178.59 714.552C3181.34 715.192 3184.09 715.512 3186.85 715.512Z" fill="black"/>
<path d="M3139.78 680.952C3137.99 680.952 3135.88 681.4 3133.44 682.296C3131.08 683.192 3128.2 685.016 3124.8 687.768V722.04H3116.93V674.52H3124.42V681.144C3127.81 678.264 3130.88 676.28 3133.64 675.192C3136.45 674.104 3139.14 673.56 3141.7 673.56C3146.12 673.56 3149.48 674.968 3151.78 677.784C3154.15 680.536 3155.33 684.472 3155.33 689.592V722.04H3147.46V690.744C3147.46 684.216 3144.9 680.952 3139.78 680.952Z" fill="black"/>
<path d="M3103.02 719.256C3100.14 720.664 3097.26 721.624 3094.38 722.136C3091.5 722.712 3088.84 723 3086.41 723C3079.56 723 3074.44 721.048 3071.05 717.144C3067.72 713.24 3066.06 707.896 3066.06 701.112V695.352C3066.06 688.76 3067.72 683.48 3071.05 679.512C3074.44 675.544 3079.21 673.56 3085.36 673.56C3088.62 673.56 3091.6 674.232 3094.28 675.576C3097.04 676.856 3099.21 678.84 3100.81 681.528C3102.48 684.152 3103.31 687.544 3103.31 691.704C3103.31 694.392 3102.92 697.464 3102.16 700.92H3073.84V701.112C3073.84 705.976 3074.83 709.656 3076.81 712.152C3078.86 714.648 3082.12 715.896 3086.6 715.896C3088.65 715.896 3090.89 715.64 3093.32 715.128C3095.82 714.616 3098.25 713.816 3100.62 712.728L3103.02 719.256ZM3085.36 680.472C3081.64 680.472 3078.83 681.688 3076.91 684.12C3075.05 686.488 3074.03 689.848 3073.84 694.2H3095.34C3095.53 693.048 3095.63 691.96 3095.63 690.936C3095.63 687.352 3094.6 684.728 3092.56 683.064C3090.57 681.336 3088.17 680.472 3085.36 680.472Z" fill="black"/>
<path d="M3034.22 723C3030.64 723 3026.92 722.264 3023.08 720.792V742.488H3015.21V674.52H3022.7V681.24C3025.64 678.424 3028.33 676.44 3030.76 675.288C3033.2 674.136 3035.69 673.56 3038.25 673.56C3043.31 673.56 3047.18 675.48 3049.87 679.32C3052.62 683.16 3054 688.568 3054 695.544V701.112C3054 707.768 3052.3 713.08 3048.91 717.048C3045.58 721.016 3040.68 723 3034.22 723ZM3036.33 680.952C3034.48 680.952 3032.56 681.432 3030.57 682.392C3028.59 683.352 3026.09 685.304 3023.08 688.248V713.592C3024.94 714.424 3026.73 715.032 3028.46 715.416C3030.19 715.736 3031.88 715.896 3033.55 715.896C3037.9 715.896 3041.04 714.584 3042.96 711.96C3044.88 709.272 3045.84 705.656 3045.84 701.112V695.544C3045.84 690.552 3045.04 686.872 3043.44 684.504C3041.9 682.136 3039.53 680.952 3036.33 680.952Z" fill="black"/>
<path d="M2999.23 682.2V696.504C2999.23 704.632 2997.18 711.096 2993.09 715.896C2989.06 720.632 2983.23 723 2975.62 723C2968 723 2962.14 720.632 2958.05 715.896C2954.02 711.096 2952 704.632 2952 696.504V682.2C2952 674.136 2954.02 667.736 2958.05 663C2962.14 658.2 2968 655.8 2975.62 655.8C2983.23 655.8 2989.06 658.2 2993.09 663C2997.18 667.736 2999.23 674.136 2999.23 682.2ZM2990.59 682.2C2990.59 676.248 2989.31 671.672 2986.75 668.472C2984.26 665.208 2980.54 663.576 2975.62 663.576C2970.75 663.576 2967.04 665.208 2964.48 668.472C2961.92 671.672 2960.64 676.248 2960.64 682.2V696.504C2960.64 702.52 2961.92 707.16 2964.48 710.424C2967.04 713.688 2970.75 715.32 2975.62 715.32C2980.54 715.32 2984.26 713.688 2986.75 710.424C2989.31 707.16 2990.59 702.52 2990.59 696.504V682.2Z" fill="black"/>
</svg>
